<?xml version="1.0" standalone="no"?>
<!DOCTYPE svg PUBLIC "-//W3C//DTD SVG 1.1//EN" "http://www.w3.org/Graphics/SVG/1.1/DTD/svg11.dtd" >
<!--
2013-9-30: Created.
-->
<svg>
<metadata>
Created by iconfont
</metadata>
<defs>

<font id="iconfont" horiz-adv-x="1024" >
  <font-face
    font-family="iconfont"
    font-weight="500"
    font-stretch="normal"
    units-per-em="1024"
    ascent="896"
    descent="-128"
  />
    <missing-glyph />
    
    <glyph glyph-name="single" unicode="&#59069;" d="M837.139 818.958h-59.605c-16.486 0-35.508-10.144-35.508-26.631 0-16.486 19.022-32.973 35.508-32.973h59.605c35.507 0 59.604-24.096 59.604-59.604v-686.069c0-35.508-24.097-59.604-59.604-59.604h-641.687c-35.508 0-74.82 24.096-74.82 59.604v686.068c0 35.508 24.096 59.604 59.604 59.604h74.82c16.485 0 22.827 16.487 22.827 32.973 0 16.487-6.341 26.631-22.827 26.631h-74.819c-83.7 0.001-119.209-51.994-119.209-120.475v-678.462c0-73.552 44.385-125.545 125.546-125.545h644.221c81.166 0 125.551 43.118 125.551 125.545v678.462c0.001 68.481-41.849 120.476-119.206 120.476v0zM255.056 550.107c0-16.486 13.952-30.433 30.433-30.433h447.66c16.486 0 30.438 13.947 30.438 30.433 0 16.487-13.952 30.438-30.438 30.438h-447.66c-16.481 0-30.433-13.951-30.433-30.438v0zM731.882 415.683h-446.393c-16.481 0-30.433-13.951-30.433-30.438 0-16.482 13.952-30.433 30.433-30.433h447.66c16.486 0 30.438 13.951 30.438 30.433-1.267 17.755-15.219 30.438-31.706 30.438v0zM731.882 236.876h-446.393c-16.481 0-30.433-13.952-30.433-30.439 0-16.485 13.952-30.432 30.433-30.432h447.66c16.486 0 30.438 13.947 30.438 30.432-1.267 17.756-15.219 30.439-31.706 30.439v0zM405.966 744.134h207.979c24.097 0 44.384 24.096 44.384 51.996 0 27.898-20.289 51.995-45.652 51.995h-206.71c-25.363 0-45.652-24.096-45.652-51.995 0-27.9 20.288-51.996 45.652-51.996v0z"  horiz-adv-x="1024" />

    
    <glyph glyph-name="xingxing" unicode="&#59062;" d="M949.12 509.408c-4.864 15.008-17.856 25.952-33.44 28.192l-256.992 37.344-114.944 232.896c-6.976 14.144-21.376 23.104-37.152 23.104-15.776 0-30.176-8.96-37.152-23.104l-114.944-232.896L97.472 537.6c-15.616-2.272-28.576-13.184-33.44-28.192s-0.8-31.456 10.496-42.464l185.984-181.28-43.904-255.968c-2.656-15.552 3.712-31.264 16.48-40.544 12.768-9.28 29.664-10.496 43.648-3.136l229.888 120.864 229.856-120.864c6.048-3.168 12.672-4.768 19.264-4.768 8.576 0 17.152 2.656 24.352 7.904 12.768 9.28 19.136 24.992 16.48 40.544l-43.904 255.968 185.984 181.28C949.92 477.952 953.984 494.4 949.12 509.408z"  horiz-adv-x="1024" />

    
    <glyph glyph-name="gouwuche" unicode="&#58920;" d="M512-99.555556c267.064889 0 483.555556 216.490667 483.555556 483.555556S779.064889 867.555556 512 867.555556 28.444444 651.064889 28.444444 384s216.490667-483.555556 483.555556-483.555556z m0-28.444444C229.233778-128 0 101.233778 0 384S229.233778 896 512 896s512-229.233778 512-512-229.233778-512-512-512z m280.32 629.560889l-66.161778-187.761778a65.308444 65.308444 0 0 0-61.354666-43.690667H406.471111a65.422222 65.422222 0 0 0-63.857778 52.963556l-43.804444 223.630222-14.478222 67.072H235.832889a13.994667 13.994667 0 0 0-13.966222 14.051556c0 7.793778 6.257778 14.08 13.966222 14.08h59.733333c0.455111 0 0.824889-0.227556 1.223111-0.284445a13.112889 13.112889 0 0 0 5.205334-1.507555 13.368889 13.368889 0 0 0 2.218666-1.507556c0.711111-0.568889 1.308444-1.137778 1.905778-1.820444a14.136889 14.136889 0 0 0 1.422222-2.161778c0.483556-0.853333 0.853333-1.706667 1.137778-2.616889 0.142222-0.426667 0.455111-0.739556 0.540445-1.194667l14.506666-67.128888h425.102222c14.961778 0 29.070222-7.338667 37.688889-19.683556 8.675556-12.316444 10.808889-28.188444 5.802667-42.467556z m-28.586667 26.225778a17.948444 17.948444 0 0 1-14.904889 7.793777H329.443556l40.533333-207.075555c3.441778-17.493333 18.773333-30.236444 36.494222-30.236445h258.332445c15.701333 0 29.809778 10.040889 35.072 24.974223l66.161777 187.733333a18.318222 18.318222 0 0 1-2.304 16.782222zM396.344889 239.587556c31.032889 0 56.263111-25.457778 56.263111-56.746667s-25.230222-56.746667-56.263111-56.746667a56.576 56.576 0 0 0-56.263111 56.746667c0 31.288889 25.230222 56.746667 56.263111 56.746667z m0-85.333334c15.644444 0 28.359111 12.8 28.359111 28.586667 0 15.758222-12.714667 28.558222-28.359111 28.558222s-28.330667-12.8-28.330667-28.558222c0-15.786667 12.714667-28.615111 28.330667-28.615111z m248.661333 85.333334c31.004444 0 56.234667-25.457778 56.234667-56.746667s-25.230222-56.746667-56.234667-56.746667a56.547556 56.547556 0 0 0-56.234666 56.746667c0 31.288889 25.230222 56.746667 56.234666 56.746667z m0-85.333334c15.644444 0 28.359111 12.8 28.359111 28.586667 0 15.758222-12.743111 28.558222-28.359111 28.558222-15.644444 0-28.359111-12.8-28.359111-28.558222 0-15.786667 12.714667-28.615111 28.359111-28.615111z"  horiz-adv-x="1024" />

    
    <glyph glyph-name="xingxing1" unicode="&#59065;" d="M576.4 692.7c46.7-90.9 118.6-145.5 215.7-163.9 97.1-18.4 111.5-64.9 43.3-139.5s-95.6-162.9-82.3-265.2c13.2-102.3-24.6-131-113.4-86.2s-177.7 44.8-266.6 0-126.6-16-113.4 86.2c13.2 102.3-14.2 190.7-82.4 265.2-68.2 74.6-53.7 121.1 43.3 139.5 97.1 18.4 169 73 215.7 163.9 46.6 90.9 93.4 90.9 140.1 0z"  horiz-adv-x="1024" />

    
    <glyph glyph-name="icon" unicode="&#58897;" d="M938.97906568 847.05869376h-161.24826291c-7.61802885 33.01145461-38.09014143 58.40488322-73.64094089 58.4048832h-79.98929595c-10.15737088 25.39342855-34.28112846 41.8991545-62.213899 41.89915452s-52.05652535-16.50572871-62.21389626-41.89915452h-81.25896692c-35.55079946 0-66.02291205-25.39342855-73.64094091-58.4048832h-161.2482629c-41.8991545 0-73.64094092-34.28112846-73.64094091-76.18028292v-820.2077068c0-41.8991545 33.01145461-76.18028295 73.64094091-76.18028299h754.18479475c41.8991545 0 77.44995393 34.28112846 77.44995392 76.18028299v820.2077068c1.26967099 41.8991545-34.28112846 76.18028295-76.18028293 76.18028292z m-375.82272492-36.82047042c34.28112846 0 60.94422524-27.93277059 60.94422517-60.94422523 0-34.28112846-27.93277059-60.94422524-60.94422517-60.94422804-34.28112846 0-60.94422524 27.93277059-60.94422809 60.94422804s26.66309961 60.94422524 60.94422809 60.94422523z m232.34985894-631.0266733c0-15.23605771-12.69671286-27.93277059-27.93277063-27.93277067h-408.83417954c-15.23605771 0-27.93277059 12.69671286-27.93277064 27.93277067v25.39342851c0 15.23605771 12.69671286 27.93277059 27.93277064 27.93277061h408.83417954c15.23605771 0 27.93277059-12.69671286 27.93277063-27.93277061v-25.39342851z m0 257.74329039c0-15.23605771-12.69671286-27.93277059-27.93277063-27.93277068h-408.83417954c-15.23605771 0-27.93277059 12.69671286-27.93277064 27.93277068v25.3934257c0 15.23605771 12.69671286 27.93277059 27.93277064 27.9327706h408.83417954c15.23605771 0 27.93277059-12.69671286 27.93277063-27.9327706v-25.3934257z"  horiz-adv-x="1142" />

    
    <glyph glyph-name="gouwuche1" unicode="&#59063;" d="M849.92 97.28H391.168C317.44 97.28 256 152.576 248.832 226.304l-44.032 440.32c-3.072 27.648-23.552 50.176-51.2 54.272l-88.064 13.312c-22.528 3.072-37.888 24.576-34.816 46.08 3.072 22.528 24.576 37.888 46.08 34.816l88.064-13.312c64.512-10.24 113.664-63.488 119.808-126.976l44.032-440.32c3.072-31.744 29.696-55.296 61.44-55.296H849.92c33.792 0 61.44 27.648 61.44 61.44V611.328c0 33.792-27.648 61.44-61.44 61.44H438.272c-22.528 0-40.96 18.432-40.96 40.96s18.432 40.96 40.96 40.96H849.92c78.848 0 143.36-64.512 143.36-143.36V240.64c0-78.848-64.512-143.36-143.36-143.36zM788.48 470.016H443.392c-22.528 0-40.96 18.432-40.96 40.96s18.432 40.96 40.96 40.96H788.48c22.528 0 40.96-18.432 40.96-40.96s-18.432-40.96-40.96-40.96zM788.48 284.672H443.392c-22.528 0-40.96 18.432-40.96 40.96s18.432 40.96 40.96 40.96H788.48c22.528 0 40.96-18.432 40.96-40.96s-18.432-40.96-40.96-40.96zM457.728 3.072m-51.2 0a51.2 51.2 0 1 1 102.4 0 51.2 51.2 0 1 1-102.4 0ZM782.336 3.072m-51.2 0a51.2 51.2 0 1 1 102.4 0 51.2 51.2 0 1 1-102.4 0Z"  horiz-adv-x="1024" />

    
    <glyph glyph-name="gouwuche2" unicode="&#59064;" d="M756 238.9l-373.1 1L326 586.1c-4.1 32.1-31.6 56.3-63.9 56.3h-54.7c-17.9 0-32.3-14.5-32.3-32.3 0-17.9 14.5-32.3 32.3-32.3l54.6-1 57-346.3c4.1-32.1 31.6-56.3 63.9-56.3H756c17.9 0 32.3 14.5 32.3 32.3 0.1 17.9-14.4 32.4-32.3 32.4zM714.7 153.1c-22.8 0-41.2-18.5-41.2-41.2 0-22.8 18.5-41.2 41.2-41.2s41.2 18.5 41.2 41.2c0.1 22.7-18.4 41.2-41.2 41.2zM415.7 153.1c-22.8 0-41.2-18.5-41.2-41.2 0-22.8 18.5-41.2 41.2-41.2 22.8 0 41.2 18.5 41.2 41.2 0 22.7-18.5 41.2-41.2 41.2zM834 574.7c-12.3 14.6-30.3 23-49.4 23H397.5c-17.9 0-32.3-14.5-32.3-32.3 0-17.9 14.5-32.3 32.3-32.3l387.1 1-36.8-183.5H438.7c-17.9 0-32.3-14.5-32.3-32.3 0-17.9 14.5-32.3 32.3-32.3h309.1c31.3 0 58 22.4 63.3 52.5l37 183.7c3.3 18.7-1.8 37.9-14.1 52.5zM512.1 896C229.8 896 0.2 666.4 0.2 384.1c0-282.3 229.6-511.9 511.9-511.9 282.3 0 511.9 229.6 511.9 511.9C1024 666.4 794.4 896 512.1 896z m0-959.1c-246.6 0-447.2 200.6-447.2 447.2S265.5 831.4 512.1 831.4s447.3-200.6 447.3-447.3c0-246.6-200.7-447.2-447.3-447.2z"  horiz-adv-x="1024" />

    
    <glyph glyph-name="rili" unicode="&#59066;" d="M896-128h-768A128 128 0 0 0 0 0v682.666667A128 128 0 0 0 128 810.666667H256V853.333333a42.666667 42.666667 0 0 0 85.333333 0V810.666667h341.333334V853.333333a42.666667 42.666667 0 0 0 85.333333 0V810.666667h128A128 128 0 0 0 1024 682.666667v-682.666667a128 128 0 0 0-128-128zM85.333333 509.866667V0A42.666667 42.666667 0 0 1 128-42.666667h768a42.666667 42.666667 0 0 1 42.666667 42.666667V509.866667H85.333333z m0 85.333333h853.333334V682.666667A42.666667 42.666667 0 0 1 896 725.333333H768v-42.666666a42.666667 42.666667 0 0 0-85.333333 0V725.333333H341.333333v-42.666666a42.666667 42.666667 0 0 0-85.333333 0V725.333333H128A42.666667 42.666667 0 0 1 85.333333 682.666667v-87.466667zM456.533333 87.893333a42.666667 42.666667 0 0 0-29.013333 11.52l-115.626667 108.8a42.865778 42.865778 0 0 0 58.88 62.293334l85.333334-80.64L652.8 384a42.666667 42.666667 0 0 0 59.733333-60.586667l-225.706666-222.72a42.666667 42.666667 0 0 0-30.293334-12.8z"  horiz-adv-x="1024" />

    
    <glyph glyph-name="xingxing2" unicode="&#58894;" d="M575.852903 780.573598L661.092435 607.945638c10.130509-20.465674 29.675227-34.689317 52.289797-37.963825l190.433097-27.62866c56.996902-8.288598 79.7138-78.281203 38.475467-118.496253l-137.836314-134.35715c-16.372539-15.963226-23.84251-38.987109-19.954032-61.49935l32.540421-189.716799c9.721195-56.792245-49.833916-100.077146-100.793444-73.267113L545.870691 54.553812a69.491196 69.491196 0 0 1-64.67153 0l-170.376737-89.537324c-50.959528-26.810033-110.51464 16.474868-100.793444 73.267113L242.569401 228.0004c3.888478 22.512241-3.581493 45.536125-19.954032 61.49935L84.779055 423.754572c-41.238333 40.215049-18.521435 110.207655 38.475467 118.496252l190.433097 27.62866c22.61457 3.274508 42.159288 17.498151 52.289797 37.963826L451.319277 780.573598c25.479764 51.675827 99.053862 51.675827 124.533626 0z"  horiz-adv-x="1024" />

    
    <glyph glyph-name="dingdan" unicode="&#59067;" d="M691.723659 724.415284h-359.397916a49.846391 49.846391 0 0 0-49.80934 49.796989V846.19066A49.858742 49.858742 0 0 0 332.325743 896h359.397916a49.846391 49.846391 0 0 0 49.796989-49.80934v-71.978387a49.846391 49.846391 0 0 0-49.796989-49.796989z m0 49.796989z m-359.397916 71.978387v-71.978387h359.397916l0.074102 71.978387zM865.235044-128h-706.445387A74.794288 74.794288 0 0 0 84.081822-53.304516V778.85604a74.794288 74.794288 0 0 0 74.707835 74.707835h51.328444v-49.759938H158.764956a24.923196 24.923196 0 0 1-24.898495-24.947897v-832.160556a24.935546 24.935546 0 0 1 24.898495-24.960247h706.445387a24.935546 24.935546 0 0 1 24.910846 24.898495V778.85604a24.935546 24.935546 0 0 1-24.910846 24.898495h-57.491316V853.613277h57.516017A74.781937 74.781937 0 0 0 939.942879 778.85604v-832.160556a74.781937 74.781937 0 0 0-74.707835-74.695484zM276.87225 508.603628h347.529139v-49.79699H276.87225zM270.375917 313.725975h506.689309v-49.79699H270.375917zM276.87225 131.840988h509.937476v-49.79699H276.87225z"  horiz-adv-x="1024" />

    
    <glyph glyph-name="rili1" unicode="&#59068;" d="M946.07 717a92 92 0 0 1-77.64 43.91H729.17V800.62c0 15.79-13.88 30.91-30.18 30.18s-30.18-13.26-30.18-30.18v-39.69H355.1V800.62c0 15.79-13.88 30.91-30.18 30.18s-30.19-13.26-30.19-30.18v-39.69h-134.4c-2.52 0-5.05 0-7.57-0.07-32-1.46-63.47-19.64-77.66-49A98.55 98.55 0 0 1 65 668.41V29c0-17.27 4.43-35 14-49.59 17.07-26 45.37-42 76.61-42.25 7.15-0.06 14.31 0 21.47 0h692.86c31.83 0.89 62.5 18.35 77.76 46.72a95.44 95.44 0 0 1 11.3 45.66V657.71c0 20.73-1.68 40.88-12.93 59.29z m-59.21-22.46a10.68 10.68 0 0 0-1.42 1.11c0.09 0.09 0.69-0.42 1.42-1.09z m-752.64-2.84c1 1 2.13 1.9 3.17 2.87a59.43 59.43 0 0 0 6.37 3.68 62.67 62.67 0 0 0 7.73 2.12c7.12 0.51 14.39 0.17 21.47 0.17h121.77v-40.8c0-15.78 13.89-30.91 30.19-30.18s30.18 13.26 30.18 30.18v40.8h313.71v-40.8c0-15.78 13.88-30.91 30.18-30.18s30.18 13.26 30.18 30.18v40.8h138.56c1.6 0 3.18-0.06 4.77-0.16a65.52 65.52 0 0 0 7.76-2.13 61.86 61.86 0 0 0 6-3.44c0.37-0.25 0.74-0.5 1.1-0.76 1.11-1 2.29-2.24 2.4-2.35 1-1 1.91-2.13 2.88-3.17a63 63 0 0 0 3.68-6.37 65.36 65.36 0 0 0 2.11-7.7c0.45-6.53 0.18-13.17 0.18-19.68v-98.16H142.27c-5.63 0-11.26 0-16.89 0.06v36.8c0 25.43-0.17 50.87 0 76.3 0 1.56 0.06 3.11 0.16 4.66a64.84 64.84 0 0 0 2.13 7.75 60.7 60.7 0 0 0 3.44 6c0.25 0.38 0.5 0.74 0.76 1.11 1.04 1.12 2.24 2.31 2.35 2.42z m-2.85-2.93a10.19 10.19 0 0 0-1.1-1.42c-0.07 0.11 0.44 0.71 1.1 1.44z m5.78-685.22a10.68 10.68 0 0 0 1.42-1.11c-0.1-0.05-0.69 0.46-1.42 1.13z m582.27-6H156.29c-1.59 0-3.18 0.06-4.76 0.16a64.48 64.48 0 0 0-7.76 2.13 60.7 60.7 0 0 0-6 3.44c-0.38 0.25-0.74 0.5-1.11 0.76-1.1 1.05-2.29 2.24-2.4 2.35-1 1-1.9 2.13-2.87 3.17a59.43 59.43 0 0 0-3.68 6.37 63.52 63.52 0 0 0-2.12 7.7c-0.45 6.53-0.17 13.18-0.17 19.68V496.28h756.04c5.72 0 11.45 0 17.17-0.06v-391.57c0-25.43 0.17-50.87 0-76.3 0-1.56-0.07-3.11-0.17-4.66a64.84 64.84 0 0 0-2.13-7.75 57 57 0 0 0-3.44-6c-0.24-0.38-0.5-0.74-0.75-1.11-1-1.1-2.24-2.29-2.36-2.4-1-1-2.13-1.9-3.16-2.87a59.43 59.43 0 0 0-6.37-3.68 65.62 65.62 0 0 0-7.8-2.13c-1.33-0.09-2.66-0.15-4-0.16h-149z m173.21 11.77a9.79 9.79 0 0 0 1.11 1.42c0.06-0.07-0.44-0.67-1.11-1.4zM749 401.87c-11.72 10.75-31.17 12.32-42.69 0q-12.5-13.38-25-26.75l-59.69-63.84q-36.09-38.6-72.19-77.2L486.7 167c-3.68-3.93-7.41-7.83-11.13-11.74L445 183.66l-85.43 79.24L340 281.11c-11.58 10.74-31.38 12.31-42.68 0-10.73-11.68-12.37-31.22 0-42.69l53.55-49.71 85.38-79.24 19.62-18.2c11.64-10.81 31.2-12.28 42.68 0l25 26.74 59.69 63.84 72.19 77.21 62.74 67.1c10.14 10.84 20.45 21.54 30.43 32.54 0.14 0.16 0.3 0.32 0.45 0.48 10.74 11.54 12.24 31.41-0.05 42.69z"  horiz-adv-x="1024" />

    
    <glyph glyph-name="037caozuo_kaiguankai2" unicode="&#58924;" d="M736 672H288C128.944 672 0 543.056 0 384s128.944-288 288-288h448c159.056 0 288 128.944 288 288S895.056 672 736 672z m0-528H288C155.456 144 48 251.456 48 384s107.456 240 240 240h448c132.544 0 240-107.456 240-240S868.544 144 736 144zM555.664 384a11 11 0 1 1 352 0 11 11 0 1 1-352 0z"  horiz-adv-x="1024" />

    
    <glyph glyph-name="036caozuo_kaiguanguan2" unicode="&#58925;" d="M736 672H288C128.944 672 0 543.056 0 384s128.944-288 288-288h448c159.056 0 288 128.944 288 288S895.056 672 736 672z m0-528H288C155.456 144 48 251.456 48 384s107.456 240 240 240h448c132.544 0 240-107.456 240-240S868.544 144 736 144zM116.336 384a11 11 0 1 1 352 0 11 11 0 1 1-352 0z"  horiz-adv-x="1024" />

    
    <glyph glyph-name="weigouxian" unicode="&#59060;" d="M535.272727-111.709091C274.618182-111.709091 62.836364 100.072727 62.836364 360.727273 62.836364 621.381818 274.618182 833.163636 535.272727 833.163636c260.654545 0 472.436364-211.781818 472.436364-472.436363 0-260.654545-211.781818-472.436364-472.436364-472.436364z m0 884.363636c-228.072727 0-411.927273-186.181818-411.927272-411.927272s186.181818-411.927273 411.927272-411.927273 411.927273 186.181818 411.927273 411.927273S763.345455 772.654545 535.272727 772.654545z"  horiz-adv-x="1024" />

    
    <glyph glyph-name="pingjia-di" unicode="&#59061;" d="M781.963636-107.054545c-11.636364 0-20.945455 2.327273-32.581818 6.981818L535.272727 18.618182l-216.436363-118.690909c-23.272727-11.636364-51.2-9.309091-72.145455 4.654545-20.945455 16.290909-30.254545 41.890909-25.6 67.490909l41.890909 253.672728-176.872727 179.2c-18.618182 18.618182-23.272727 44.218182-16.290909 69.818181 6.981818 25.6 27.927273 44.218182 53.527273 46.545455l242.036363 37.236364 109.381818 230.4c11.636364 23.272727 34.909091 39.563636 60.509091 39.563636s48.872727-16.290909 60.509091-39.563636l109.381818-230.4L947.2 523.636364c25.6-4.654545 46.545455-23.272727 53.527273-46.545455 6.981818-25.6 2.327273-51.2-16.290909-69.818182l-176.872728-179.2 41.890909-253.672727c4.654545-25.6-4.654545-51.2-25.6-67.490909-11.636364-9.309091-25.6-13.963636-41.890909-13.963636zM535.272727 777.309091c-4.654545 0-11.636364-2.327273-13.963636-9.309091l-121.018182-256-267.636364-39.563636c-4.654545 0-9.309091-4.654545-11.636363-11.636364-2.327273-6.981818 0-13.963636 4.654545-18.618182l193.163637-197.818182-46.545455-279.272727c0-6.981818 2.327273-13.963636 6.981818-16.290909 4.654545-2.327273 9.309091-4.654545 13.963637-2.327273L535.272727 79.127273l242.036364-132.654546c4.654545-2.327273 11.636364-2.327273 13.963636 0 4.654545 4.654545 6.981818 11.636364 6.981818 16.290909l-46.545454 279.272728 193.163636 197.818181c4.654545 4.654545 6.981818 11.636364 4.654546 18.618182-2.327273 6.981818-6.981818 9.309091-11.636364 11.636364l-269.963636 41.890909-121.018182 256c0 4.654545-6.981818 9.309091-11.636364 9.309091z"  horiz-adv-x="1024" />

    
    <glyph glyph-name="wodehuiyuan-zhankai" unicode="&#59057;" d="M509.672727 88.436364c-37.236364 0-74.472727 16.290909-100.072727 46.545454l-372.363636 442.181818C4.654545 612.072727 9.309091 665.6 46.545455 695.854545c34.909091 30.254545 90.763636 27.927273 121.018181-9.30909L512 279.272727l365.381818 381.672728c32.581818 34.909091 86.109091 34.909091 121.018182 2.327272s34.909091-86.109091 2.327273-121.018182L602.763636 128c-2.327273-4.654545-6.981818-6.981818-11.636363-9.309091-23.272727-20.945455-53.527273-30.254545-81.454546-30.254545z"  horiz-adv-x="1024" />

    
    <glyph glyph-name="xiugaishoujihaoma" unicode="&#59058;" d="M795.927273 477.090909c0-83.781818-25.6-190.836364-76.8-321.163636-27.927273-72.145455-200.145455-125.672727-512-155.927273l321.163636-20.945455c155.927273-25.6 249.018182 4.654545 274.618182 90.763637 25.6 86.109091 37.236364 209.454545 30.254545 372.363636L795.927273 477.090909zM286.254545 642.327273c41.890909 0 76.8 34.909091 76.8 76.8s-34.909091 79.127273-76.8 79.127272c-18.618182 0-62.836364 0-76.8-11.636363-16.290909-13.963636 0-41.890909 0-67.490909 0-41.890909 34.909091-76.8 76.8-76.8zM640-43.450182H237.381818c-39.563636 0-74.472727 32.581818-74.472727 74.472727v705.163637c0 41.890909 32.581818 74.472727 74.472727 74.472727h551.563637c39.563636 0 72.145455-32.581818 72.145454-74.472727v-558.545455c0-121.018182-97.745455-221.090909-221.090909-221.090909z m-402.618182 791.272727c-6.981818 0-11.636364-4.654545-11.636363-11.636363v-707.490909c0-6.981818 4.654545-11.636364 11.636363-11.636364h404.945455c88.436364 0 158.254545 72.145455 158.254545 158.254546v558.545454c0 6.981818-4.654545 11.636364-11.636363 11.636364H237.381818zM502.690909 177.640727l25.6-13.963636c6.981818-2.327273 9.309091-9.309091 9.309091-16.290909v-30.254546c0-6.981818-4.654545-13.963636-9.309091-16.290909l-25.6-13.963636c-6.981818-4.654545-13.963636-4.654545-18.618182 0l-25.6 13.963636c-6.981818 2.327273-9.309091 9.309091-9.309091 16.290909v30.254546c0 6.981818 4.654545 13.963636 9.309091 16.290909l25.6 13.963636c4.654545 2.327273 13.963636 2.327273 18.618182 0zM202.472727 305.640727h621.381818v-62.836363H202.472727z"  horiz-adv-x="1024" />

    
    <glyph glyph-name="yinsibaohuxieyi" unicode="&#59059;" d="M509.672727 677.236364c48.872727 0 86.109091 39.563636 86.109091 86.109091S556.218182 849.454545 509.672727 849.454545c-20.945455 0-86.109091-60.509091-86.109091-86.10909-2.327273-48.872727 37.236364-86.109091 86.109091-86.109091zM879.709091 686.545455c2.327273-214.109091-48.872727-381.672727-148.945455-502.69091-79.127273-95.418182-214.109091-148.945455-400.290909-162.90909l181.527273-88.436364c190.836364 32.581818 300.218182 95.418182 330.472727 190.836364C872.727273 218.763636 898.327273 407.272727 916.945455 686.545455h-37.236364zM507.345455-102.4c-153.6 0-444.509091 249.018182-449.163637 481.745455V667.927273c2.327273 27.927273 20.945455 53.527273 48.872727 60.509091l9.309091 2.327272c60.509091 4.654545 121.018182 18.618182 176.872728 41.890909l4.654545 2.327273c60.509091 16.290909 116.363636 46.545455 162.909091 86.109091l2.327273 2.327273c11.636364 9.309091 25.6 13.963636 41.890909 13.963636s32.581818-2.327273 44.218182-11.636363l2.327272-2.327273c46.545455-37.236364 100.072727-67.490909 155.927273-90.763637 58.181818-16.290909 118.690909-30.254545 179.2-39.563636h2.327273c30.254545-6.981818 53.527273-32.581818 58.181818-65.163636v-2.327273c2.327273-27.927273 9.309091-130.327273 0-286.254545v-2.327273C907.636364 67.490909 660.945455-102.4 507.345455-102.4zM128 663.272727v-281.6c4.654545-211.781818 276.945455-414.254545 379.345455-414.254545 114.036364 0 335.127273 139.636364 370.036363 416.581818 6.981818 151.272727 2.327273 251.345455 0 279.272727 0 2.327273-2.327273 2.327273-2.327273 2.327273-65.163636 9.309091-128 23.272727-190.836363 41.890909h-2.327273C621.381818 733.090909 563.2 765.672727 512 805.236364h-2.327273v11.636363-11.636363h-2.327272-2.327273c-53.527273-46.545455-118.690909-79.127273-186.181818-100.072728-62.836364-20.945455-125.672727-34.909091-190.836364-41.890909zM342.109091 418.909091h360.727273c20.945455 0 37.236364-16.290909 37.236363-37.236364 0-20.945455-16.290909-37.236364-37.236363-37.236363H342.109091c-20.945455 0-37.236364 16.290909-37.236364 37.236363 0 20.945455 16.290909 37.236364 37.236364 37.236364zM558.545455 558.545455v-351.418182c0-20.945455-16.290909-37.236364-37.236364-37.236364h-2.327273c-20.945455 0-37.236364 16.290909-37.236363 37.236364V558.545455c0 20.945455 16.290909 37.236364 37.236363 37.236363h2.327273c20.945455-2.327273 37.236364-18.618182 37.236364-37.236363z"  horiz-adv-x="1024" />

    
    <glyph glyph-name="wodehuiyuan-shouqi" unicode="&#59053;" d="M102.4 51.2c-18.618182 0-39.563636 6.981818-55.854545 20.945455-37.236364 30.254545-41.890909 83.781818-9.309091 121.018181l372.363636 442.181819c23.272727 27.927273 53.527273 44.218182 88.436364 46.545454 34.909091 2.327273 69.818182-6.981818 95.418181-30.254545l9.309091-9.309091L1000.727273 225.745455c32.581818-34.909091 32.581818-88.436364-2.327273-121.018182-34.909091-32.581818-88.436364-32.581818-121.018182 2.327272L509.672727 488.727273 167.563636 81.454545c-18.618182-20.945455-41.890909-30.254545-65.163636-30.254545z"  horiz-adv-x="1024" />

    
    <glyph glyph-name="gongnengfankui" unicode="&#59054;" d="M523.636364 300.218182c72.145455 0 130.327273 58.181818 130.327272 130.327273s-58.181818 130.327273-130.327272 130.327272c-32.581818 0-130.327273-90.763636-130.327273-130.327272-2.327273-72.145455 55.854545-130.327273 130.327273-130.327273zM823.854545 404.945455c16.290909-118.690909-9.309091-197.818182-76.8-239.709091-34.909091-20.945455-144.290909-58.181818-330.472727-114.036364l393.309091 39.563636c23.272727-4.654545 46.545455 37.236364 74.472727 123.345455s16.290909 148.945455-34.909091 190.836364h-25.6zM514.327273 27.927273H512c-195.490909 0-249.018182 2.327273-304.872727 18.618182-76.8 23.272727-111.709091 74.472727-111.709091 167.563636 0 200.145455 207.127273 467.781818 418.909091 467.781818 209.454545 0 416.581818-267.636364 416.581818-467.781818 0-93.090909-34.909091-144.290909-111.709091-167.563636-55.854545-16.290909-109.381818-18.618182-304.872727-18.618182z m0 591.127272c-172.218182 0-353.745455-237.381818-353.745455-404.945454 0-74.472727 25.6-95.418182 67.490909-107.054546 44.218182-13.963636 88.436364-16.290909 286.254546-16.290909h2.327272c197.818182 0 242.036364 2.327273 286.254546 16.290909 41.890909 11.636364 67.490909 34.909091 67.490909 107.054546-2.327273 167.563636-186.181818 404.945455-356.072727 404.945454z m0-339.781818c-83.781818 0-151.272727 62.836364-151.272728 141.963637s67.490909 141.963636 151.272728 141.963636 151.272727-62.836364 151.272727-141.963636-67.490909-141.963636-151.272727-141.963637z m0 221.090909c-48.872727 0-88.436364-34.909091-88.436364-79.127272s39.563636-79.127273 88.436364-79.127273c48.872727 0 88.436364 34.909091 88.436363 79.127273S563.2 500.363636 514.327273 500.363636zM872.727273 425.890909c-41.890909 0-79.127273 20.945455-104.727273 58.181818-58.181818 100.072727-160.581818 162.909091-256 162.909091-97.745455 0-190.836364-58.181818-260.654545-160.581818-2.327273-2.327273-4.654545-6.981818-6.981819-9.309091l-11.636363-20.945454-2.327273 2.327272c-18.618182-16.290909-44.218182-25.6-72.145455-27.927272-41.890909 0-81.454545 16.290909-104.727272 51.2-37.236364 46.545455-27.927273 144.290909 20.945454 211.781818 69.818182 97.745455 216.436364 148.945455 437.527273 148.945454 218.763636 0 365.381818-48.872727 437.527273-146.618182 53.527273-69.818182 53.527273-158.254545 27.927272-209.454545-23.272727-37.236364-60.509091-60.509091-104.727272-60.509091 2.327273 0 0 0 0 0zM512 709.818182c118.690909 0 239.709091-74.472727 309.527273-190.836364 11.636364-18.618182 30.254545-27.927273 51.2-30.254545 20.945455 0 37.236364 11.636364 48.872727 30.254545 16.290909 30.254545 11.636364 93.090909-23.272727 141.963637C840.145455 740.072727 709.818182 779.636364 512 779.636364 311.854545 779.636364 181.527273 737.745455 123.345455 656.290909c-37.236364-53.527273-34.909091-118.690909-20.945455-137.309091 16.290909-23.272727 41.890909-25.6 53.527273-25.6 13.963636 0 25.6 4.654545 34.909091 13.963637l23.272727 37.236363 4.654545-2.327273C297.890909 651.636364 400.290909 709.818182 512 709.818182z"  horiz-adv-x="1024" />

    
    <glyph glyph-name="lianxiwomen" unicode="&#59055;" d="M833.163636 777.309091C814.545455 470.109091 784.290909 290.909091 747.054545 239.709091c-27.927273-39.563636-107.054545-114.036364-235.054545-225.745455l235.054545 55.854546c72.145455 20.945455 114.036364 60.509091 128 116.363636 13.963636 55.854545 13.963636 253.672727 0 593.454546h-41.890909zM239.243636 708.887273m-111.709091 0a111.709091 111.709091 0 1 1 223.418182 0 111.709091 111.709091 0 1 1-223.418182 0ZM518.516364-49.803636c-13.963636 0-27.927273 2.327273-39.563637 9.309091l-304.872727 155.927272c-30.254545 13.963636-46.545455 44.218182-46.545455 76.8V734.487273c0 46.545455 39.563636 86.109091 86.109091 86.109091h609.745455c48.872727 0 86.109091-39.563636 86.109091-86.109091v-542.254546c0-32.581818-18.618182-62.836364-46.545455-76.8l-304.872727-155.927272c-11.636364-4.654545-25.6-9.309091-39.563636-9.309091zM213.643636 753.105455c-11.636364 0-20.945455-9.309091-20.945454-20.945455v-539.927273c0-6.981818 4.654545-13.963636 11.636363-18.618182l304.872728-155.927272c4.654545-2.327273 11.636364-2.327273 18.618182 0l304.872727 155.927272c6.981818 2.327273 11.636364 9.309091 11.636363 18.618182V734.487273c0 11.636364-9.309091 20.945455-20.945454 20.945454H213.643636zM511.534545 317.905455c-18.618182 0-30.254545 11.636364-30.254545 32.581818 0 11.636364 0 51.2 37.236364 74.472727 6.981818 6.981818 11.636364 6.981818 18.618181 11.636364 25.6 11.636364 55.854545 32.581818 67.49091 74.472727 6.981818 32.581818 0 55.854545-18.618182 81.454545-11.636364 18.618182-37.236364 32.581818-74.472728 32.581819-48.872727 0-74.472727-18.618182-86.10909-37.236364-11.636364-25.6-18.618182-51.2-11.636364-69.818182s-6.981818-32.581818-25.6-37.236364c-18.618182-6.981818-37.236364 6.981818-37.236364 18.618182-11.636364 37.236364 0 88.436364 30.254546 125.672728s81.454545 62.836364 137.309091 62.836363 100.072727-18.618182 130.327272-55.854545c30.254545-37.236364 37.236364-88.436364 25.6-132.654546-18.618182-74.472727-74.472727-107.054545-104.727272-118.690909-6.981818 0-6.981818-6.981818-11.636364-6.981818-11.636364-6.981818-11.636364-11.636364-11.636364-18.618182v-6.981818c-4.654545-18.618182-16.290909-30.254545-34.909091-30.254545zM527.825455 206.196364c-18.618182 0-30.254545 11.636364-30.254546 32.581818 0 18.618182 11.636364 32.581818 30.254546 32.581818s30.254545-11.636364 30.254545-32.581818c2.327273-18.618182-11.636364-32.581818-30.254545-32.581818z"  horiz-adv-x="1024" />

    
    <glyph glyph-name="guanyuwomen" unicode="&#59056;" d="M714.472727 297.890909c46.545455-51.2 76.8-90.763636 88.436364-116.363636 13.963636-30.254545 30.254545-60.509091 16.290909-81.454546-27.927273-41.890909-125.672727-65.163636-300.218182-69.818182l230.4-55.854545c76.8-13.963636 123.345455 2.327273 134.981818 55.854545 13.963636 51.2-4.654545 125.672727-51.2 221.09091l-118.690909 46.545454zM485.096727 462.615273m-76.8 0a76.8 76.8 0 1 1 153.6 0 76.8 76.8 0 1 1-153.6 0ZM943.569455 69.306182c-27.927273 151.272727-137.309091 269.963636-279.272728 314.181818 65.163636 39.563636 107.054545 109.381818 107.054546 190.836364 0 123.345455-100.072727 223.418182-223.418182 223.418181S324.514909 697.669818 324.514909 571.997091s100.072727-223.418182 223.418182-223.418182c169.890909 0 316.509091-121.018182 346.763636-288.581818 2.327273-9.309091 0-18.618182-6.981818-25.6-6.981818-6.981818-16.290909-11.636364-25.6-11.636364h-628.363636c-9.309091 0-18.618182 4.654545-25.6 11.636364-6.981818 6.981818-9.309091 18.618182-6.981818 27.927273C219.787636 164.724364 289.605818 257.815273 385.024 309.015273c6.981818 4.654545 13.963636 11.636364 13.963636 20.945454s-4.654545 18.618182-11.636363 23.272728c-6.981818 4.654545-16.290909 4.654545-25.6 0-109.381818-58.181818-186.181818-162.909091-209.454546-283.927273-4.654545-25.6 2.327273-48.872727 18.618182-69.818182 16.290909-18.618182 39.563636-30.254545 62.836364-30.254545h628.363636c25.6 0 48.872727 11.636364 62.836364 30.254545 16.290909 20.945455 23.272727 44.218182 18.618182 69.818182zM373.387636 571.997091c0 95.418182 76.8 174.545455 174.545455 174.545454s174.545455-76.8 174.545454-174.545454-76.8-174.545455-174.545454-174.545455-174.545455 79.127273-174.545455 174.545455zM862.114909-37.748364h-628.363636c-27.927273 0-51.2 11.636364-69.818182 32.581819-18.618182 20.945455-25.6 48.872727-18.618182 74.472727C168.587636 192.651636 247.714909 299.706182 359.424 357.888c9.309091 4.654545 23.272727 4.654545 32.581818-2.327273 9.309091-6.981818 16.290909-18.618182 16.290909-30.254545s-6.981818-23.272727-18.618182-27.927273c-93.090909-48.872727-160.581818-139.636364-179.2-242.036364-2.327273-6.981818 0-16.290909 4.654546-20.945454 4.654545-2.327273 11.636364-4.654545 18.618182-4.654546h628.363636c6.981818 0 13.963636 2.327273 18.618182 9.309091 4.654545 4.654545 6.981818 13.963636 4.654545 20.945455-30.254545 162.909091-172.218182 281.6-339.781818 281.6-128 0-232.727273 104.727273-232.727273 232.727273s104.727273 232.727273 232.727273 232.727272 232.727273-104.727273 232.727273-232.727272c0-76.8-37.236364-144.290909-97.745455-188.509091 139.636364-48.872727 242.036364-167.563636 269.963637-314.181818 4.654545-25.6-2.327273-53.527273-18.618182-74.472728-16.290909-23.272727-41.890909-34.909091-69.818182-34.909091z m-628.363636 16.290909h628.363636c23.272727 0 44.218182 9.309091 58.181818 27.927273 13.963636 16.290909 20.945455 39.563636 16.290909 62.836364C910.987636 215.924364 803.933091 332.288 661.969455 376.506182l-16.29091 2.327273 13.963637 9.30909c65.163636 39.563636 104.727273 109.381818 104.727273 183.854546 0 118.690909-97.745455 216.436364-216.436364 216.436364-118.690909 0-216.436364-97.745455-216.436364-216.436364S429.242182 355.560727 547.933091 355.560727c174.545455 0 323.490909-123.345455 353.745454-295.563636 2.327273-11.636364 0-23.272727-9.30909-32.581818-6.981818-9.309091-18.618182-13.963636-30.254546-13.963637h-628.363636c-11.636364 0-23.272727 4.654545-30.254546 13.963637-6.981818 9.309091-11.636364 20.945455-9.309091 34.909091 20.945455 107.054545 90.763636 202.472727 186.181819 253.672727 4.654545 2.327273 9.309091 9.309091 9.30909 13.963636 0 6.981818-2.327273 11.636364-9.30909 16.290909-4.654545 2.327273-11.636364 4.654545-18.618182 0-107.054545-55.854545-183.854545-160.581818-204.8-276.945454-4.654545-23.272727 2.327273-44.218182 16.290909-62.836364 16.290909-18.618182 37.236364-27.927273 60.509091-27.927273z m314.181818 411.927273c-100.072727 0-181.527273 81.454545-181.527273 181.527273s81.454545 181.527273 181.527273 181.527273 181.527273-81.454545 181.527273-181.527273-81.454545-181.527273-181.527273-181.527273z m0 349.090909c-90.763636 0-165.236364-74.472727-165.236364-165.236363s74.472727-165.236364 165.236364-165.236364c90.763636 0 165.236364 74.472727 165.236364 165.236364S638.696727 739.560727 547.933091 739.560727z"  horiz-adv-x="1024" />

    
    <glyph glyph-name="yiwancheng" unicode="&#59052;" d="M477.106538 516.740741m-373.270956 0a373.270955 373.270955 0 1 1 746.541911 0 373.270955 373.270955 0 1 1-746.541911 0ZM477.106538 137.481481c-209.590643 0-379.259259 169.668616-379.25926 379.25926s169.668616 379.259259 379.25926 379.259259 379.259259-169.668616 379.259259-379.259259-171.664717-379.259259-379.259259-379.25926z m0 746.541911C275.5003 884.023392 109.823887 718.346979 109.823887 516.740741S275.5003 151.454191 477.106538 151.454191C678.712775 151.454191 842.393087 315.134503 842.393087 516.740741S678.712775 884.023392 477.106538 884.023392zM477.106538 259.243665c-141.723197 0-257.497076 115.773879-257.497076 257.497076S333.387239 774.237817 477.106538 774.237817s257.497076-115.773879 257.497076-257.497076-115.773879-257.497076-257.497076-257.497076z m0 507.009746C341.371645 766.253411 229.589968 654.471735 229.589968 518.736842S341.371645 271.220273 477.106538 271.220273c135.734893 0 247.516569 111.781676 247.516569 247.516569S612.84143 766.253411 477.106538 766.253411zM156.931879 475.401481L685.679169 756.552359l100.264172-188.571696-528.707369-281.150877zM323.406733 772.241715l-7.984406-15.968811-5.988304 15.968811-17.964912 3.992203 11.976608 11.976608-1.996101 17.964913 15.96881-9.980507 15.968811 7.984405-3.992202-15.968811 11.976608-13.972709zM245.558779 708.366472l-3.992202-17.964913-9.980507 13.97271h-17.964912l9.980506 13.97271-5.988304 17.964912 17.964913-5.988304 13.972709 9.980507v-17.964913l13.97271-9.980507zM634.040027 258.205692l-16.108538 0.059883 10.83883-13.174269-7.245848-16.567641 16.368032 4.391423 14.551579-10.699104 1.057933 17.825186 13.174269 10.83883-15.829084 4.511189-6.10807 17.366082zM717.776479 327.390565l-14.631423-5.389473 14.57154-10.699104-0.079844-16.088577 13.174269 10.838831 17.565692-5.529201-6.128031 17.366082 10.719064 14.551579-18.823236-0.658714-10.83883 13.174269zM539.784121 222.71501l-18.563743 3.792592 8.86269-16.627524-7.984406-13.832982 17.086628 1.656764 10.838831-13.174269 3.792592 18.563742 15.629474 7.106121-13.832983 7.984406-3.393372 18.104639zM411.235193 398.97076c5.988304 3.992203 9.980507 7.984405 9.980506 11.976608 1.996101 5.988304-1.996101 17.964912-9.980506 35.929825l-11.976609-1.996101c7.984405-15.968811 9.980507-25.949318 9.980507-29.941521-1.996101-1.996101-3.992203-5.988304-5.988304-7.984405l-69.863548-37.925926c-5.988304-3.992203-11.976608-1.996101-13.972709 3.992202l-21.957115 41.918129 87.82846 47.906433-31.937622 55.890838-103.797271-57.886939 5.988304-9.980507 93.816764 51.898635 19.961014-35.929824-77.847953-43.91423-11.976608 19.961013-9.980507-5.988304 39.922027-73.85575c5.988304-11.976608 15.968811-13.97271 25.949318-7.984406l75.851852 43.91423z m5.988304 103.797271l-11.976608 21.957115L503.055855 578.619883l11.976609-21.957115 9.980506 5.988304-17.964912 31.937622-53.894737-29.941521c-3.992203 3.992203-9.980507 7.984405-13.972709 11.976609l-9.980507-7.984406c3.992203-1.996101 7.984405-5.988304 11.976608-9.980507l-53.894737-29.94152 17.964913-31.937622 11.976608 5.988304z m91.820662 43.91423l-5.988304 9.980507-77.847953-43.91423 5.988304-9.980507 77.847953 43.91423z m-53.894736-129.746588c13.97271 13.97271 21.957115 25.949318 23.953216 35.929824 1.996101 11.976608 0 25.949318-7.984405 39.922027l23.953216 13.97271 19.961014-35.929825c5.988304-9.980507 11.976608-11.976608 19.961013-5.988304l23.953217 13.97271c3.992203 1.996101 7.984405 5.988304 7.984405 9.980507s-1.996101 13.97271-7.984405 27.945419l-11.976609-5.988304c5.988304-9.980507 7.984405-17.964912 7.984406-19.961014 0-1.996101-1.996101-3.992203-3.992203-5.988304l-17.964912-9.980507c-3.992203-1.996101-7.984405-1.996101-9.980507 3.992203l-17.964912 31.937622 39.922027 21.957115-5.988304 9.980506-121.762183-67.867446 5.988304-9.980507 37.925926 21.957115c5.988304-11.976608 7.984405-21.957115 5.988304-31.937622-1.996101-9.980507-9.980507-21.957115-23.953217-33.933723l11.976609-3.992202z m141.723197 77.847953c1.996101 19.961014-3.992203 43.91423-15.968811 69.863547l-1.996102 3.992203 23.953217 13.97271c7.984405-15.968811 13.97271-25.949318 15.968811-31.937622 1.996101-3.992203 0-7.984405-1.996102-9.980507-3.992203-1.996101-7.984405-3.992203-13.972709-7.984405l7.984405-7.984406 11.976608 5.988304c5.988304 3.992203 9.980507 9.980507 7.984406 15.968811-1.996101 7.984405-9.980507 23.953216-21.957115 47.906433l-33.933723-19.961014-11.976609 23.953217 47.906433 25.949317c9.980507-15.968811 19.961014-29.94152 29.941521-39.922027 3.992203-5.988304 9.980507-9.980507 13.972709-13.972709-1.996101-17.964912-9.980507-33.933723-19.961014-47.906433l9.980507-5.988304c9.980507 13.97271 15.968811 27.945419 19.961014 43.91423 3.992203-3.992203 9.980507-5.988304 13.972709-7.984406 11.976608-3.992203 19.961014-5.988304 25.949318-1.996101 5.988304 3.992203 5.988304 15.968811-1.996101 35.929824h-11.976608c5.988304-15.968811 7.984405-23.953216 5.988304-25.949317-1.996101-1.996101-7.984405 0-15.968811 3.992202-3.992203 1.996101-7.984405 3.992203-11.976608 7.984406 1.996101 17.964912 0 37.925926-3.992203 57.88694l-11.976608-1.996102c3.992203-17.964912 5.988304-33.933723 3.992202-47.906433l-7.984405 7.984406c-7.984405 7.984405-17.964912 21.957115-27.945419 37.925926L664.740066 650.479532l-5.988304 9.980507-17.964912-9.980507 1.996101 9.980507c-7.984405 1.996101-15.968811 3.992203-25.949318 5.988304l-3.992203-9.980507c9.980507-1.996101 17.964912-3.992203 25.949318-5.988304l-25.949318-13.972709c-3.992203 5.988304-7.984405 13.97271-11.976608 21.957115l-9.980507-5.988304c3.992203-7.984405 7.984405-13.97271 11.976609-21.957115l-59.883041-25.949318 25.949317-45.910332c11.976608-23.953216 17.964912-43.91423 15.968811-61.879142l11.976609-1.996101zM223.601664 384.998051m-19.961013 0a19.961014 19.961014 0 1 1 39.922027 0 19.961014 19.961014 0 1 1-39.922027 0ZM716.638701 650.479532m-19.961013 0a19.961014 19.961014 0 1 1 39.922027 0 19.961014 19.961014 0 1 1-39.922027 0Z"  horiz-adv-x="1024" />

    
    <glyph glyph-name="xiugaidenglumima" unicode="&#59048;" d="M714.472727 228.072727c60.509091 13.963636 0-48.872727-179.2-181.527272-23.272727-18.618182-102.4-41.890909-235.054545-74.472728l165.236363-20.945454c146.618182-44.218182 232.727273-23.272727 258.327273 60.509091 25.6 86.109091 32.581818 162.909091 18.618182 230.4l-27.927273-13.963637zM228.072727 228.072727c41.890909 0 76.8 34.909091 76.8 76.8 0 41.890909-34.909091 76.8-76.8 76.8-18.618182 0-62.836364 0-76.8-11.636363-16.290909-13.963636 0-41.890909 0-67.490909-2.327273-39.563636 32.581818-74.472727 76.8-74.472728zM282.112 467.269818v111.709091c0 81.454545 65.163636 146.618182 146.618182 146.618182s146.618182-65.163636 146.618182-146.618182v-109.381818h72.145454v109.381818c0 121.018182-97.745455 218.763636-218.763636 218.763636s-221.090909-97.745455-221.090909-218.763636v-109.381818h74.472727zM538.112 139.124364h-74.472727v72.145454l439.854545 439.854546 74.472727-72.145455zM170.402909-81.966545c-39.563636 0-72.145455 32.581818-72.145454 72.145454v367.709091c0 39.563636 32.581818 72.145455 72.145454 72.145455h439.854546l-183.854546-183.854546v-146.618182h146.618182l183.854545 183.854546v-293.236364c0-39.563636-32.581818-72.145455-72.145454-72.145454h-514.327273z m2.327273 451.490909c-6.981818 0-11.636364-4.654545-11.636364-11.636364v-365.381818c0-6.981818 4.654545-11.636364 11.636364-11.636364h512c6.981818 0 11.636364 4.654545 11.636363 11.636364v144.290909l-95.418181-95.418182h-235.054546v232.727273l95.418182 95.418182h-288.581818z"  horiz-adv-x="1024" />

    
    <glyph glyph-name="wangjizhifumima" unicode="&#59049;" d="M795.927273 425.890909C768 249.018182 712.145455 134.981818 630.690909 81.454545c-25.6-16.290909-134.981818-53.527273-330.472727-109.381818l165.236363-20.945454c197.818182-39.563636 309.527273-16.290909 335.127273 67.490909 25.6 86.109091 37.236364 209.454545 30.254546 372.363636l-34.909091 34.909091zM740.072727-81.454545H232.727273c-60.509091 0-107.054545 48.872727-107.054546 109.381818V370.036364c0 60.509091 48.872727 109.381818 107.054546 109.381818h507.345454c58.181818 0 107.054545-48.872727 107.054546-109.381818v-344.436364c0-58.181818-48.872727-107.054545-107.054546-107.054545zM232.727273 418.909091c-25.6 0-46.545455-20.945455-46.545455-46.545455v-344.436363c0-25.6 20.945455-46.545455 46.545455-46.545455h505.018182c25.6 0 46.545455 20.945455 46.545454 46.545455V370.036364c0 25.6-20.945455 46.545455-46.545454 46.545454H232.727273zM542.254545 172.218182v-20.945455c0-30.254545-25.6-55.854545-55.854545-55.854545s-55.854545 25.6-55.854545 55.854545v20.945455c-20.945455 20.945455-30.254545 51.2-23.272728 79.127273 9.309091 34.909091 41.890909 60.509091 79.127273 60.50909s69.818182-23.272727 79.127273-60.50909c9.309091-27.927273 0-60.509091-23.272728-79.127273zM486.4 62.836364c-48.872727 0-88.436364 39.563636-88.436364 88.436363v9.309091c-23.272727 27.927273-32.581818 65.163636-20.945454 100.072727 13.963636 48.872727 58.181818 81.454545 109.381818 81.454546s95.418182-34.909091 109.381818-81.454546c9.309091-34.909091 2.327273-72.145455-23.272727-100.072727v-9.309091c0-48.872727-37.236364-88.436364-86.109091-88.436363z m0 218.763636c-23.272727 0-44.218182-16.290909-48.872727-37.236364-4.654545-18.618182 0-37.236364 13.963636-48.872727l9.309091-9.309091V151.272727c0-13.963636 11.636364-25.6 25.6-25.6S512 137.309091 512 151.272727v34.909091l9.309091 9.309091c13.963636 11.636364 18.618182 30.254545 13.963636 48.872727-4.654545 20.945455-25.6 37.236364-48.872727 37.236364zM723.781818 477.090909h-69.818182v81.454546c0 93.090909-74.472727 169.890909-167.563636 169.890909s-167.563636-76.8-167.563636-169.890909V477.090909h-69.818182v81.454546c0 132.654545 107.054545 239.709091 237.381818 239.70909s237.381818-107.054545 237.381818-239.70909V477.090909z"  horiz-adv-x="1024" />

    
    <glyph glyph-name="wodedingdan-yiwancheng" unicode="&#59050;" d="M512-81.454545C256-81.454545 46.545455 128 46.545455 384S256 849.454545 512 849.454545s465.454545-209.454545 465.454545-465.454545-209.454545-465.454545-465.454545-465.454545z m0 861.090909C293.236364 779.636364 116.363636 602.763636 116.363636 384s176.872727-395.636364 395.636364-395.636364 395.636364 176.872727 395.636364 395.636364S730.763636 779.636364 512 779.636364zM439.854545 179.2c-20.945455 0-39.563636 6.981818-55.854545 20.945455L256 321.163636c-13.963636 13.963636-16.290909 37.236364-2.327273 51.2 13.963636 13.963636 37.236364 16.290909 51.2 2.327273l128-118.690909c4.654545-4.654545 11.636364-4.654545 13.963637 0l253.672727 249.018182c13.963636 13.963636 37.236364 13.963636 51.2 0 13.963636-13.963636 13.963636-37.236364 0-51.2L498.036364 202.472727c-16.290909-13.963636-37.236364-23.272727-58.181819-23.272727z"  horiz-adv-x="1024" />

    
    <glyph glyph-name="sehzhi-shouhuodizhi" unicode="&#59051;" d="M784.290909 642.327273c-6.981818-230.4-102.4-411.927273-283.927273-546.909091-23.272727-18.618182-83.781818 2.327273-176.872727 58.181818l141.963636-181.527273c107.054545 72.145455 183.854545 144.290909 230.4 216.436364s93.090909 200.145455 139.636364 379.345454l-51.2 74.472728zM493.381818-60.509091c-32.581818 0-67.490909 23.272727-111.709091 69.818182l23.272728 20.945454-23.272728-20.945454c-34.909091 37.236364-72.145455 88.436364-109.381818 146.618182C221.090909 235.054545 139.636364 386.327273 139.636364 502.690909c0 93.090909 37.236364 179.2 102.4 244.363636C309.527273 812.218182 397.963636 849.454545 493.381818 849.454545c93.090909 0 181.527273-34.909091 249.018182-102.4 67.490909-65.163636 102.4-153.6 102.4-244.363636 0-118.690909-81.454545-267.636364-130.327273-346.763636-34.909091-58.181818-74.472727-109.381818-109.381818-146.618182-44.218182-46.545455-79.127273-69.818182-111.709091-69.818182z m0 847.127273c-76.8 0-151.272727-30.254545-204.8-83.781818-55.854545-53.527273-86.109091-125.672727-86.109091-200.145455 0-74.472727 44.218182-188.509091 121.018182-314.181818 32.581818-53.527273 69.818182-102.4 102.4-137.309091 44.218182-46.545455 62.836364-48.872727 67.490909-48.872727s23.272727 2.327273 67.490909 48.872727c32.581818 34.909091 67.490909 83.781818 102.4 137.309091 76.8 125.672727 121.018182 239.709091 121.018182 314.181818 0 76.8-30.254545 146.618182-83.781818 200.145455-58.181818 53.527273-130.327273 83.781818-207.127273 83.781818zM493.381818 337.454545c83.781818 0 151.272727 67.490909 151.272727 148.945455s-67.490909 148.945455-151.272727 148.945455-151.272727-67.490909-151.272727-148.945455 67.490909-148.945455 151.272727-148.945455zM493.381818 307.2c-100.072727 0-181.527273 81.454545-181.527273 179.2s81.454545 179.2 181.527273 179.2 181.527273-81.454545 181.527273-179.2-81.454545-179.2-181.527273-179.2z m0 295.563636c-65.163636 0-121.018182-53.527273-121.018182-116.363636s53.527273-116.363636 121.018182-116.363636 121.018182 53.527273 121.018182 116.363636-55.854545 116.363636-121.018182 116.363636z"  horiz-adv-x="1024" />

    
    <glyph glyph-name="tixian1" unicode="&#59046;" d="M325.818182-25.6c-9.309091 0-20.945455 4.654545-27.927273 11.636364-13.963636 16.290909-13.963636 39.563636 2.327273 53.527272l342.109091 318.836364L300.218182 681.890909c-16.290909 13.963636-16.290909 39.563636-2.327273 53.527273 13.963636 16.290909 39.563636 16.290909 53.527273 2.327273l353.745454-332.8c11.636364-11.636364 18.618182-27.927273 20.945455-44.218182 0-16.290909-4.654545-32.581818-16.290909-44.218182l-2.327273-2.327273-356.072727-330.472727c-6.981818-6.981818-16.290909-9.309091-25.6-9.309091z m325.818182 374.690909z"  horiz-adv-x="1024" />

    
    <glyph glyph-name="shijianxuanze" unicode="&#59047;" d="M525.963636 134.981818c-25.6 0-48.872727 9.309091-69.818181 25.6l-9.309091 9.309091L116.363636 521.309091c-27.927273 27.927273-25.6 74.472727 2.327273 100.072727 27.927273 27.927273 74.472727 25.6 100.072727-2.327273l304.872728-323.490909L809.890909 640c25.6 30.254545 69.818182 34.909091 100.072727 9.309091 30.254545-25.6 34.909091-69.818182 9.309091-100.072727L609.745455 174.545455c-20.945455-27.927273-51.2-39.563636-83.781819-39.563637z m25.6 132.654546z"  horiz-adv-x="1024" />

    
    <glyph glyph-name="shouyimingxi-shouqi" unicode="&#59044;" d="M512 384m-465.454545 0a465.454545 465.454545 0 1 1 930.90909 0 465.454545 465.454545 0 1 1-930.90909 0ZM740.072727 273.850182c-2.327273-2.327273-6.981818-4.654545-13.963636-4.654546-4.654545 0-9.309091 2.327273-13.963636 4.654546l-200.145455 202.472727-202.472727-204.8c-2.327273-2.327273-6.981818-4.654545-13.963637-4.654545-4.654545 0-9.309091 2.327273-13.963636 4.654545 0 4.654545-2.327273 9.309091-2.327273 13.963636 0 4.654545 2.327273 9.309091 4.654546 13.963637l214.109091 216.436363c6.981818 6.981818 18.618182 6.981818 25.6 0l214.109091-216.436363c9.309091-6.981818 9.309091-18.618182 2.327272-25.6zM726.109091 259.886545c-6.981818 0-13.963636 2.327273-18.618182 6.981819l-195.490909 200.145454-195.490909-197.818182c-9.309091-9.309091-27.927273-9.309091-37.236364 0-4.654545 4.654545-6.981818 11.636364-6.981818 18.618182s2.327273 13.963636 6.981818 18.618182l214.109091 216.436364c9.309091 9.309091 27.927273 9.309091 37.236364 0l214.109091-216.436364c9.309091-9.309091 9.309091-25.6 0-37.236364-4.654545-6.981818-11.636364-9.309091-18.618182-9.309091z m-214.109091 228.072728l207.127273-209.454546c4.654545-4.654545 11.636364-4.654545 13.963636 0 4.654545 4.654545 4.654545 11.636364 0 16.290909l-214.109091 216.436364c-4.654545 4.654545-11.636364 4.654545-13.963636 0l-214.109091-216.436364c-2.327273-2.327273-2.327273-4.654545-2.327273-6.981818s0-4.654545 2.327273-6.981818c4.654545-4.654545 11.636364-4.654545 13.963636 0l207.127273 207.127273z"  horiz-adv-x="1024" />

    
    <glyph glyph-name="zhaunjifen-man198" unicode="&#59045;" d="M837.818182 11.636364H186.181818c-76.8 0-139.636364 62.836364-139.636363 139.636363V616.727273c0 76.8 62.836364 139.636364 139.636363 139.636363h651.636364c76.8 0 139.636364-62.836364 139.636363-139.636363v-465.454546c0-76.8-62.836364-139.636364-139.636363-139.636363zM186.181818 663.272727c-25.6 0-46.545455-20.945455-46.545454-46.545454v-465.454546c0-25.6 20.945455-46.545455 46.545454-46.545454h651.636364c25.6 0 46.545455 20.945455 46.545454 46.545454V616.727273c0 25.6-20.945455 46.545455-46.545454 46.545454H186.181818zM372.363636 523.636364h279.272728c25.6 0 46.545455-20.945455 46.545454-46.545455s-20.945455-46.545455-46.545454-46.545454H372.363636c-25.6 0-46.545455 20.945455-46.545454 46.545454s20.945455 46.545455 46.545454 46.545455zM372.363636 337.454545h279.272728c25.6 0 46.545455-20.945455 46.545454-46.545454s-20.945455-46.545455-46.545454-46.545455H372.363636c-25.6 0-46.545455 20.945455-46.545454 46.545455s20.945455 46.545455 46.545454 46.545454z"  horiz-adv-x="1024" />

    
    <glyph glyph-name="zhuanjifen-shifu" unicode="&#59042;" d="M500.363636-55.854545c-60.509091 0-121.018182 11.636364-176.872727 37.236363-53.527273 23.272727-102.4 55.854545-144.290909 97.745455-41.890909 41.890909-74.472727 93.090909-97.745455 146.618182-62.836364 151.272727-41.890909 325.818182 55.854546 458.472727C167.563636 723.781818 202.472727 756.363636 242.036364 784.290909 281.6 812.218182 325.818182 833.163636 372.363636 847.127273c6.981818 2.327273 11.636364 0 18.618182-2.327273 4.654545-2.327273 9.309091-9.309091 11.636364-13.963636 4.654545-11.636364-2.327273-25.6-16.290909-30.254546-169.890909-51.2-290.909091-214.109091-290.909091-395.636363 0-228.072727 181.527273-411.927273 404.945454-411.927273s404.945455 186.181818 404.945455 411.927273c0 181.527273-118.690909 344.436364-288.581818 395.636363-11.636364 4.654545-18.618182 16.290909-16.290909 30.254546 2.327273 6.981818 6.981818 11.636364 11.636363 13.963636s11.636364 4.654545 18.618182 2.327273c46.545455-13.963636 90.763636-34.909091 128-62.836364 79.127273-55.854545 137.309091-137.309091 169.890909-228.072727 34.909091-107.054545 32.581818-223.418182-11.636363-328.145455-23.272727-53.527273-55.854545-104.727273-97.745455-146.618182-41.890909-41.890909-90.763636-74.472727-144.290909-97.745454-53.527273-27.927273-114.036364-39.563636-174.545455-39.563636zM500.363636-74.472727c-65.163636 0-125.672727 11.636364-183.854545 37.236363-55.854545 23.272727-107.054545 58.181818-148.945455 102.4-44.218182 44.218182-76.8 95.418182-100.072727 153.6C0 377.018182 23.272727 558.545455 123.345455 695.854545c30.254545 39.563636 65.163636 74.472727 107.054545 104.727273 41.890909 30.254545 86.109091 51.2 134.981818 65.163637 11.636364 2.327273 23.272727 2.327273 32.581818-4.654546 9.309091-4.654545 16.290909-13.963636 20.945455-25.6 6.981818-20.945455-6.981818-46.545455-27.927273-53.527273C228.072727 733.090909 114.036364 577.163636 114.036364 402.618182c0-216.436364 174.545455-393.309091 386.327272-393.309091s386.327273 176.872727 386.327273 393.309091c0 172.218182-114.036364 328.145455-274.618182 377.018182-23.272727 6.981818-34.909091 30.254545-27.927272 53.527272 2.327273 11.636364 9.309091 20.945455 20.945454 25.6 9.309091 4.654545 20.945455 6.981818 32.581818 2.327273 48.872727-13.963636 93.090909-37.236364 134.981818-67.490909 83.781818-60.509091 144.290909-141.963636 176.872728-237.381818 37.236364-111.709091 32.581818-232.727273-11.636364-342.109091-23.272727-58.181818-58.181818-109.381818-100.072727-153.6-41.890909-44.218182-93.090909-79.127273-148.945455-102.4-62.836364-20.945455-125.672727-32.581818-188.509091-32.581818z m0 37.236363c58.181818 0 116.363636 11.636364 169.890909 34.909091 51.2 23.272727 97.745455 53.527273 137.309091 95.418182 39.563636 39.563636 72.145455 88.436364 93.090909 139.636364 41.890909 100.072727 44.218182 211.781818 11.636364 316.509091-30.254545 88.436364-86.109091 165.236364-162.909091 221.090909-37.236364 27.927273-79.127273 46.545455-123.345454 60.509091h-4.654546l-2.327273-2.327273c0-2.327273 0-6.981818 4.654546-6.981818 176.872727-53.527273 302.545455-223.418182 302.545454-414.254546 0-237.381818-190.836364-430.545455-423.563636-430.545454S79.127273 169.890909 79.127273 407.272727c0 190.836364 125.672727 360.727273 302.545454 414.254546 2.327273 0 4.654545 4.654545 4.654546 6.981818 0 2.327273-2.327273 2.327273-2.327273 2.327273h-4.654545c-44.218182-13.963636-86.109091-34.909091-123.345455-60.509091C214.109091 742.4 181.527273 709.818182 153.6 672.581818c-93.090909-125.672727-114.036364-295.563636-53.527273-439.854545 20.945455-53.527273 53.527273-100.072727 93.090909-139.636364 39.563636-39.563636 86.109091-72.145455 137.309091-95.418182 53.527273-23.272727 111.709091-34.909091 169.890909-34.909091zM484.072727 202.472727c-23.272727 0-44.218182 9.309091-62.836363 25.6-25.6 23.272727-51.2 34.909091-72.145455 32.581818-27.927273-2.327273-44.218182-27.927273-46.545454-27.927272-6.981818-11.636364-23.272727-13.963636-32.581819-6.981818s-13.963636 23.272727-6.981818 32.581818c2.327273 2.327273 30.254545 41.890909 79.127273 46.545454 37.236364 4.654545 74.472727-11.636364 111.709091-44.218182 30.254545-27.927273 62.836364-11.636364 116.363636 34.909091 11.636364 9.309091 23.272727 18.618182 34.909091 25.6 25.6 13.963636 53.527273 20.945455 79.127273 16.290909 32.581818-4.654545 65.163636-25.6 93.090909-60.50909 6.981818-9.309091 6.981818-25.6-4.654546-32.581819s-25.6-6.981818-34.90909 2.327273c-37.236364 44.218182-72.145455 55.854545-111.709091 32.581818-6.981818-4.654545-16.290909-11.636364-27.927273-20.945454-20.945455-18.618182-48.872727-39.563636-76.8-51.2-11.636364-2.327273-25.6-4.654545-37.236364-4.654546zM484.072727 188.509091c-27.927273 0-51.2 9.309091-74.472727 30.254545s-44.218182 30.254545-62.836364 27.927273c-20.945455-2.327273-34.909091-20.945455-34.909091-20.945454-4.654545-6.981818-13.963636-13.963636-23.272727-16.29091-9.309091-2.327273-20.945455 0-27.927273 6.981819-9.309091 4.654545-13.963636 13.963636-16.290909 25.6-2.327273 9.309091 0 20.945455 6.981819 27.927272 2.327273 2.327273 32.581818 46.545455 90.763636 53.527273 41.890909 4.654545 81.454545-11.636364 121.018182-48.872727 18.618182-16.290909 37.236364-16.290909 100.072727 34.909091 13.963636 11.636364 23.272727 20.945455 34.909091 25.6 27.927273 16.290909 58.181818 23.272727 88.436364 18.618182 37.236364-4.654545 72.145455-27.927273 102.4-65.163637 13.963636-16.290909 9.309091-39.563636-4.654546-53.527273-16.290909-13.963636-39.563636-11.636364-53.527273 4.654546-41.890909 51.2-72.145455 41.890909-93.090909 30.254545-6.981818-4.654545-16.290909-11.636364-25.6-18.618181-23.272727-18.618182-48.872727-41.890909-81.454545-53.527273-16.290909-6.981818-32.581818-9.309091-46.545455-9.309091z m-132.654545 86.109091c23.272727 0 48.872727-11.636364 76.8-37.236364 16.290909-13.963636 34.909091-23.272727 53.527273-23.272727 11.636364 0 23.272727 2.327273 34.90909 6.981818 27.927273 11.636364 53.527273 32.581818 74.472728 48.872727 11.636364 9.309091 20.945455 18.618182 30.254545 23.272728 44.218182 25.6 88.436364 13.963636 128-34.909091 2.327273-4.654545 9.309091-4.654545 13.963637 0 4.654545 4.654545 4.654545 9.309091 2.327272 13.963636-25.6 32.581818-55.854545 51.2-83.781818 55.854546-23.272727 2.327273-46.545455-2.327273-69.818182-13.963637-9.309091-4.654545-18.618182-13.963636-32.581818-23.272727-51.2-41.890909-95.418182-72.145455-134.981818-34.909091-34.909091 30.254545-67.490909 44.218182-100.072727 41.890909-44.218182-4.654545-69.818182-41.890909-69.818182-41.890909-2.327273-2.327273-2.327273-4.654545-2.327273-6.981818 0-2.327273 2.327273-4.654545 4.654546-6.981818 2.327273-2.327273 4.654545-2.327273 6.981818-2.327273 2.327273 0 4.654545 2.327273 6.981818 4.654545 2.327273 2.327273 23.272727 30.254545 55.854545 32.581819 0-2.327273 2.327273-2.327273 4.654546-2.327273z"  horiz-adv-x="1024" />

    
    <glyph glyph-name="zhuanjifen-man98" unicode="&#59043;" d="M837.818182 11.636364H186.181818c-76.8 0-139.636364 62.836364-139.636363 139.636363V616.727273c0 76.8 62.836364 139.636364 139.636363 139.636363h651.636364c76.8 0 139.636364-62.836364 139.636363-139.636363v-465.454546c0-76.8-62.836364-139.636364-139.636363-139.636363zM186.181818 663.272727c-25.6 0-46.545455-20.945455-46.545454-46.545454v-465.454546c0-25.6 20.945455-46.545455 46.545454-46.545454h651.636364c25.6 0 46.545455 20.945455 46.545454 46.545454V616.727273c0 25.6-20.945455 46.545455-46.545454 46.545454H186.181818zM372.363636 430.545455h279.272728c25.6 0 46.545455-20.945455 46.545454-46.545455s-20.945455-46.545455-46.545454-46.545455H372.363636c-25.6 0-46.545455 20.945455-46.545454 46.545455s20.945455 46.545455 46.545454 46.545455z"  horiz-adv-x="1024" />

    
    <glyph glyph-name="gerenxinxi-xuanze" unicode="&#59040;" d="M325.818182-25.6c-9.309091 0-20.945455 4.654545-27.927273 11.636364-13.963636 16.290909-13.963636 39.563636 2.327273 53.527272l342.109091 318.836364L300.218182 681.890909c-16.290909 13.963636-16.290909 39.563636-2.327273 53.527273 13.963636 16.290909 39.563636 16.290909 53.527273 2.327273l353.745454-332.8c11.636364-11.636364 18.618182-27.927273 20.945455-44.218182 0-16.290909-4.654545-32.581818-16.290909-44.218182l-2.327273-2.327273-356.072727-330.472727c-6.981818-6.981818-16.290909-9.309091-25.6-9.309091z m325.818182 374.690909z"  horiz-adv-x="1024" />

    
    <glyph glyph-name="liulianjilu-gouwuche" unicode="&#59041;" d="M512 384m-465.454545 0a465.454545 465.454545 0 1 1 930.90909 0 465.454545 465.454545 0 1 1-930.90909 0ZM418.257455 149.783273c0-11.636364 6.981818-20.945455 16.290909-27.927273 9.309091-4.654545 20.945455-4.654545 30.254545 0s16.290909 16.290909 16.290909 27.927273-6.981818 20.945455-16.290909 27.927272-20.945455 4.654545-30.254545 0c-11.636364-6.981818-16.290909-16.290909-16.290909-27.927272zM585.821091 149.783273c0-11.636364 6.981818-20.945455 16.290909-27.927273 9.309091-4.654545 20.945455-4.654545 30.254545 0s16.290909 16.290909 16.29091 27.927273-6.981818 20.945455-16.29091 27.927272c-9.309091 4.654545-20.945455 4.654545-30.254545 0-11.636364-6.981818-16.290909-16.290909-16.290909-27.927272zM627.712 212.619636h-209.454545c-41.890909 0-76.8 32.581818-81.454546 74.472728l-20.945454 267.636363c0 9.309091 6.981818 18.618182 16.290909 18.618182 9.309091 0 18.618182-6.981818 18.618181-16.290909l20.945455-267.636364c2.327273-23.272727 20.945455-41.890909 44.218182-41.890909h209.454545c25.6 0 44.218182 20.945455 44.218182 44.218182v148.945455c0 11.636364-4.654545 23.272727-13.963636 32.581818-9.309091 9.309091-18.618182 13.963636-32.581818 13.963636h-193.163637c-9.309091 0-18.618182 6.981818-18.618182 18.618182s6.981818 18.618182 18.618182 18.618182h197.818182c20.945455 0 41.890909-9.309091 58.181818-23.272727s23.272727-34.909091 23.272727-58.181819v-148.945454c-2.327273-44.218182-37.236364-81.454545-81.454545-81.454546zM459.845818 411.997091h146.618182c6.981818 0 11.636364-4.654545 11.636364-11.636364s-4.654545-11.636364-11.636364-11.636363h-146.618182c-6.981818 0-11.636364 4.654545-11.636363 11.636363s4.654545 11.636364 11.636363 11.636364zM606.464 379.415273h-146.618182c-11.636364 0-20.945455 9.309091-20.945454 20.945454s9.309091 20.945455 20.945454 20.945455h146.618182c11.636364 0 20.945455-9.309091 20.945455-20.945455s-9.309091-20.945455-20.945455-20.945454z m-146.618182 23.272727c-2.327273 0-2.327273-2.327273-2.327273-2.327273s0-2.327273 2.327273-2.327272h146.618182c2.327273 0 2.327273 2.327273 2.327273 2.327272s0 2.327273-2.327273 2.327273h-146.618182zM459.845818 328.215273h146.618182c6.981818 0 11.636364-4.654545 11.636364-11.636364s-4.654545-11.636364-11.636364-11.636364h-146.618182c-6.981818 0-11.636364 4.654545-11.636363 11.636364s4.654545 11.636364 11.636363 11.636364zM606.464 295.633455h-146.618182c-11.636364 0-20.945455 9.309091-20.945454 20.945454s9.309091 20.945455 20.945454 20.945455h146.618182c11.636364 0 20.945455-9.309091 20.945455-20.945455s-9.309091-20.945455-20.945455-20.945454z m-146.618182 23.272727c-2.327273 0-2.327273-2.327273-2.327273-2.327273l2.327273-2.327273h146.618182c2.327273 0 2.327273 2.327273 2.327273 2.327273 0 2.327273-2.327273 2.327273-2.327273 2.327273h-146.618182z"  horiz-adv-x="1024" />

    
    <glyph glyph-name="shoyitixian" unicode="&#59038;" d="M325.818182-25.6c-9.309091 0-20.945455 4.654545-27.927273 11.636364-13.963636 16.290909-13.963636 39.563636 2.327273 53.527272l342.109091 318.836364L300.218182 681.890909c-16.290909 13.963636-16.290909 39.563636-2.327273 53.527273 13.963636 16.290909 39.563636 16.290909 53.527273 2.327273l353.745454-332.8c11.636364-11.636364 18.618182-27.927273 20.945455-44.218182 0-16.290909-4.654545-32.581818-16.290909-44.218182l-2.327273-2.327273-356.072727-330.472727c-6.981818-6.981818-16.290909-9.309091-25.6-9.309091z m325.818182 374.690909z"  horiz-adv-x="1024" />

    
    <glyph glyph-name="jianqunshengji" unicode="&#59039;" d="M907.636364-86.109091H116.363636c-41.890909 0-74.472727 34.909091-74.472727 74.472727V779.636364c0 41.890909 34.909091 74.472727 74.472727 74.472727h791.272728c41.890909 0 74.472727-34.909091 74.472727-74.472727v-791.272728c0-41.890909-32.581818-74.472727-74.472727-74.472727zM116.363636 844.8C81.454545 844.8 51.2 814.545455 51.2 779.636364v-791.272728c0-34.909091 27.927273-65.163636 65.163636-65.163636h791.272728c34.909091 0 65.163636 27.927273 65.163636 65.163636V779.636364c0 34.909091-27.927273 65.163636-65.163636 65.163636H116.363636zM602.763636 370.036364h-76.8v-76.8c0-6.981818-6.981818-13.963636-13.963636-13.963637s-13.963636 6.981818-13.963636 13.963637v76.8h-76.8c-6.981818 0-13.963636 6.981818-13.963637 13.963636s6.981818 13.963636 13.963637 13.963636h76.8v76.8c0 6.981818 6.981818 13.963636 13.963636 13.963637s13.963636-6.981818 13.963636-13.963637v-76.8h76.8c6.981818 0 13.963636-6.981818 13.963637-13.963636s-6.981818-13.963636-13.963637-13.963636z"  horiz-adv-x="1024" />

    
    <glyph glyph-name="wode-quyaoqing" unicode="&#59037;" d="M418.909091-37.236364c-9.309091 0-18.618182 2.327273-25.6 6.981819-23.272727 13.963636-30.254545 44.218182-16.290909 67.490909l193.163636 321.163636-193.163636 325.818182c-13.963636 23.272727-6.981818 53.527273 16.290909 67.490909 23.272727 13.963636 53.527273 6.981818 67.490909-16.290909l202.472727-339.781818c13.963636-23.272727 13.963636-51.2 0-74.472728l-202.472727-335.127272c-9.309091-16.290909-25.6-23.272727-41.890909-23.272728z m160.581818 381.672728z m0 27.927272z"  horiz-adv-x="1024" />

    
    <glyph glyph-name="weixin1" unicode="&#59035;" d="M512 384m-465.454545 0a465.454545 465.454545 0 1 1 930.90909 0 465.454545 465.454545 0 1 1-930.90909 0ZM779.008 118.923636l-88.436364 48.872728c-20.945455-4.654545-39.563636-9.309091-60.509091-9.309091-107.054545 0-195.490909 76.8-195.490909 169.890909s88.436364 169.890909 195.490909 169.890909c107.054545 0 195.490909-76.8 195.49091-169.890909 0-44.218182-25.6-88.436364-69.818182-128l23.272727-81.454546z m-83.781818 86.109091l6.981818-2.327272 20.945455-11.636364-6.981819 23.272727 9.309091 6.981818c25.6 18.618182 67.490909 58.181818 67.490909 107.054546 0 72.145455-74.472727 134.981818-160.581818 134.981818-88.436364 0-160.581818-60.509091-160.581818-134.981818 0-74.472727 72.145455-134.981818 160.581818-134.981818 18.618182 0 37.236364 4.654545 58.181818 9.309091l4.654546 2.327272zM574.208 351.650909c-13.963636 0-23.272727 11.636364-23.272727 23.272727s11.636364 23.272727 23.272727 23.272728 23.272727-11.636364 23.272727-23.272728c2.327273-13.963636-9.309091-23.272727-23.272727-23.272727zM690.571636 351.650909c-13.963636 0-23.272727 11.636364-23.272727 23.272727 0 13.963636 11.636364 23.272727 23.272727 23.272728s23.272727-11.636364 23.272728-23.272728-9.309091-23.272727-23.272728-23.272727zM425.262545 637.905455c-116.363636 0-209.454545-79.127273-209.454545-179.2 0-58.181818 30.254545-104.727273 83.781818-141.963637l-20.945454-62.836363 72.145454 37.236363c25.6-4.654545 46.545455-11.636364 74.472727-11.636363h18.618182c-4.654545 13.963636-6.981818 27.927273-6.981818 44.218181 0 90.763636 79.127273 165.236364 179.2 165.236364 6.981818 0 13.963636 0 20.945455-2.327273-18.618182 88.436364-109.381818 151.272727-211.781819 151.272728zM248.389818 218.996364l30.254546 93.090909c-53.527273 39.563636-81.454545 90.763636-81.454546 148.945454 2.327273 107.054545 102.4 193.163636 228.072727 193.163637 111.709091 0 209.454545-69.818182 228.072728-160.581819l4.654545-23.272727-23.272727 2.327273h-18.618182c-88.436364 0-160.581818-67.490909-160.581818-148.945455 0-13.963636 2.327273-25.6 4.654545-39.563636l6.981819-20.945455-20.945455-2.327272h-20.945455c-23.272727 0-44.218182 4.654545-65.163636 9.309091l-4.654545 2.327272-107.054546-53.527272z m176.872727 400.290909c-107.054545 0-193.163636-72.145455-193.163636-160.581818 0-48.872727 25.6-90.763636 76.8-128l11.636364-6.981819-11.636364-34.909091 41.890909 20.945455 18.618182-4.654545c18.618182-4.654545 37.236364-6.981818 55.854545-6.981819-2.327273 9.309091-2.327273 18.618182-2.327272 27.927273 0 100.072727 86.109091 181.527273 190.836363 183.854546-27.927273 62.836364-102.4 109.381818-188.509091 109.381818zM355.444364 493.614545c-16.290909 0-27.927273 11.636364-27.927273 27.927273s11.636364 27.927273 27.927273 27.927273 27.927273-11.636364 27.927272-27.927273-11.636364-27.927273-27.927272-27.927273zM502.062545 493.614545c-16.290909 0-27.927273 11.636364-27.927272 27.927273s11.636364 27.927273 27.927272 27.927273 27.927273-11.636364 27.927273-27.927273-11.636364-27.927273-27.927273-27.927273z"  horiz-adv-x="1024" />

    
    <glyph glyph-name="QQ" unicode="&#59036;" d="M512 849.454545C253.672727 849.454545 46.545455 642.327273 46.545455 384s207.127273-465.454545 465.454545-465.454545 465.454545 207.127273 465.454545 465.454545S770.327273 849.454545 512 849.454545zM614.4 132.654545c-46.545455 0-81.454545 9.309091-102.4 27.927273-13.963636-13.963636-44.218182-27.927273-102.4-27.927273-34.909091 0-60.509091 11.636364-72.145455 32.581819-9.309091 11.636364-9.309091 30.254545-2.327272 46.545454 4.654545 11.636364 13.963636 20.945455 23.272727 27.927273-4.654545 6.981818-6.981818 11.636364-9.309091 18.618182-9.309091-9.309091-18.618182-13.963636-27.927273-16.290909-9.309091 0-18.618182 2.327273-23.272727 9.309091-9.309091 11.636364-11.636364 34.909091-11.636364 48.872727 2.327273 34.909091 18.618182 69.818182 48.872728 104.727273-2.327273 16.290909 0 41.890909 16.290909 62.836363 2.327273 95.418182 72.145455 165.236364 160.581818 165.236364 90.763636 0 158.254545-69.818182 160.581818-165.236364 16.290909-20.945455 18.618182-46.545455 16.290909-62.836363 20.945455-25.6 46.545455-60.509091 48.872728-104.727273 0-13.963636 0-37.236364-11.636364-48.872727-4.654545-6.981818-13.963636-11.636364-23.272727-9.309091-9.309091 0-18.618182 6.981818-27.927273 16.290909-2.327273-4.654545-6.981818-11.636364-11.636364-18.618182 9.309091-6.981818 18.618182-16.290909 23.272728-27.927273 6.981818-16.290909 6.981818-34.909091-2.327273-48.872727-4.654545-9.309091-23.272727-30.254545-69.818182-30.254546zM512 162.909091z m23.272727 25.6c16.290909-13.963636 41.890909-20.945455 79.127273-20.945455 30.254545 0 39.563636 11.636364 44.218182 16.290909 2.327273 2.327273 2.327273 9.309091 0 16.29091-2.327273 4.654545-6.981818 13.963636-20.945455 16.290909l-25.6 6.981818 16.290909 20.945454c20.945455 25.6 27.927273 46.545455 30.254546 55.854546l11.636363 44.218182 20.945455-41.890909c4.654545-9.309091 9.309091-16.290909 13.963636-20.945455 0 4.654545 2.327273 11.636364 0 16.290909-2.327273 41.890909-34.909091 79.127273-46.545454 90.763636l-6.981818 9.309091 4.654545 11.636364c0 2.327273 4.654545 25.6-11.636364 39.563636l-4.654545 4.654546v6.981818c0 79.127273-53.527273 137.309091-125.672727 137.309091-72.145455 0-125.672727-58.181818-125.672728-134.981818v-6.981818l-4.654545-6.981819c-13.963636-13.963636-11.636364-37.236364-11.636364-41.890909l4.654546-11.636363-9.309091-6.981819c-27.927273-30.254545-44.218182-62.836364-46.545455-90.763636 0-4.654545 0-11.636364 2.327273-16.290909 4.654545 4.654545 9.309091 11.636364 13.963636 20.945455l18.618182 39.563636 13.963637-41.890909c6.981818-18.618182 16.290909-37.236364 30.254545-55.854546l16.290909-20.945454-25.6-6.981818c-13.963636-2.327273-20.945455-11.636364-23.272727-16.290909-2.327273-4.654545-2.327273-11.636364 0-16.29091 4.654545-6.981818 18.618182-16.290909 44.218182-16.290909 51.2 0 72.145455 13.963636 81.454545 20.945455 6.981818 6.981818 16.290909 9.309091 23.272727 9.309091 6.981818 0 13.963636-4.654545 18.618182-9.309091z"  horiz-adv-x="1024" />

    
    <glyph glyph-name="denglu-yonghuxieyi" unicode="&#59032;" d="M744.727273-81.454545H279.272727C151.272727-81.454545 46.545455 23.272727 46.545455 151.272727V616.727273C46.545455 744.727273 151.272727 849.454545 279.272727 849.454545h465.454546c128 0 232.727273-104.727273 232.727272-232.727272v-465.454546c0-128-104.727273-232.727273-232.727272-232.727272zM279.272727 756.363636c-76.8 0-139.636364-62.836364-139.636363-139.636363v-465.454546c0-76.8 62.836364-139.636364 139.636363-139.636363h465.454546c76.8 0 139.636364 62.836364 139.636363 139.636363V616.727273c0 76.8-62.836364 139.636364-139.636363 139.636363H279.272727z"  horiz-adv-x="1024" />

    
    <glyph glyph-name="fenxiang-guanbi" unicode="&#59033;" d="M512 384m-465.454545 0a465.454545 465.454545 0 1 1 930.90909 0 465.454545 465.454545 0 1 1-930.90909 0ZM512-95.418182C246.690909-95.418182 32.581818 118.690909 32.581818 384 32.581818 649.309091 246.690909 863.418182 512 863.418182 777.309091 863.418182 991.418182 646.981818 991.418182 384c0-265.309091-214.109091-479.418182-479.418182-479.418182z m0 930.909091C262.981818 835.490909 60.509091 633.018182 60.509091 384S262.981818-67.490909 512-67.490909 963.490909 134.981818 963.490909 384 761.018182 835.490909 512 835.490909zM539.927273 384l139.636363 139.636364c6.981818 6.981818 6.981818 20.945455 0 30.254545-6.981818 6.981818-20.945455 6.981818-30.254545 0l-139.636364-139.636364-139.636363 137.309091c-6.981818 6.981818-20.945455 6.981818-30.254546 0-6.981818-6.981818-6.981818-20.945455 0-30.254545l139.636364-137.309091-137.309091-139.636364c-6.981818-6.981818-6.981818-20.945455 0-30.254545 6.981818-6.981818 20.945455-6.981818 30.254545 0l137.309091 139.636364 139.636364-139.636364c4.654545-4.654545 13.963636-6.981818 20.945454-4.654546 6.981818 2.327273 11.636364 6.981818 13.963637 13.963637 2.327273 6.981818 0 13.963636-4.654546 20.945454l-139.636363 139.636364z"  horiz-adv-x="1024" />

    
    <glyph glyph-name="gouwuche-weixuanzhong" unicode="&#59034;" d="M512 826.181818C267.636364 826.181818 69.818182 628.363636 69.818182 384s197.818182-442.181818 442.181818-442.181818 442.181818 197.818182 442.181818 442.181818S756.363636 826.181818 512 826.181818M512-88.436364C251.345455-88.436364 39.563636 123.345455 39.563636 384 39.563636 644.654545 251.345455 856.436364 512 856.436364c260.654545 0 472.436364-211.781818 472.436364-472.436364 0-260.654545-211.781818-472.436364-472.436364-472.436364z m0 884.363637c-228.072727 0-411.927273-186.181818-411.927273-411.927273s186.181818-411.927273 411.927273-411.927273 411.927273 186.181818 411.927273 411.927273S740.072727 795.927273 512 795.927273z"  horiz-adv-x="1024" />

    
    <glyph glyph-name="haowu-qugoumai" unicode="&#59031;" d="M395.636364-25.6c-11.636364 0-25.6 4.654545-37.236364 11.636364-27.927273 20.945455-32.581818 58.181818-13.963636 86.109091L574.836364 384 346.763636 698.181818c-20.945455 27.927273-13.963636 65.163636 13.963637 86.109091 27.927273 20.945455 65.163636 13.963636 86.109091-13.963636L691.2 430.545455c20.945455-30.254545 20.945455-69.818182 0-100.072728L444.509091-2.327273c-11.636364-16.290909-30.254545-23.272727-48.872727-23.272727z m197.818181 384z"  horiz-adv-x="1024" />

    
    <glyph glyph-name="shengshiqu-xuanze" unicode="&#59026;" d="M325.818182-25.6c-9.309091 0-20.945455 4.654545-27.927273 11.636364-13.963636 16.290909-13.963636 39.563636 2.327273 53.527272l342.109091 318.836364L300.218182 681.890909c-16.290909 13.963636-16.290909 39.563636-2.327273 53.527273 13.963636 16.290909 39.563636 16.290909 53.527273 2.327273l353.745454-332.8c11.636364-11.636364 18.618182-27.927273 20.945455-44.218182 0-16.290909-4.654545-32.581818-16.290909-44.218182l-2.327273-2.327273-356.072727-330.472727c-6.981818-6.981818-16.290909-9.309091-25.6-9.309091z m325.818182 374.690909z"  horiz-adv-x="1024" />

    
    <glyph glyph-name="jiedao" unicode="&#59027;" d="M514.327273-4.654545c-9.309091 0-18.618182 2.327273-27.927273 9.30909-4.654545 2.327273-9.309091 6.981818-11.636364 11.636364l-93.090909 125.672727H202.472727c-74.472727 0-132.654545 60.509091-132.654545 132.654546v418.909091C69.818182 765.672727 130.327273 826.181818 202.472727 826.181818h626.036364c74.472727 0 132.654545-60.509091 132.654545-132.654545v-418.909091c0-74.472727-60.509091-132.654545-132.654545-132.654546h-193.163636l-81.454546-123.345454c-6.981818-16.290909-23.272727-23.272727-39.563636-23.272727zM202.472727 763.345455c-39.563636 0-69.818182-30.254545-69.818182-69.818182v-418.909091c0-39.563636 32.581818-72.145455 72.145455-72.145455h209.454545l100.072728-137.309091 90.763636 137.309091h225.745455c39.563636 0 72.145455 32.581818 72.145454 72.145455v418.909091c0 39.563636-32.581818 72.145455-72.145454 72.145454h-628.363637zM756.363636 530.618182H283.927273c-16.290909 0-30.254545 13.963636-30.254546 30.254545s13.963636 30.254545 30.254546 30.254546h472.436363c16.290909 0 30.254545-13.963636 30.254546-30.254546s-11.636364-30.254545-30.254546-30.254545z m-472.436363 46.545454v-16.290909 16.290909zM588.8 346.763636H283.927273c-16.290909 0-30.254545 13.963636-30.254546 30.254546 0 16.290909 13.963636 30.254545 30.254546 30.254545h304.872727c16.290909 0 30.254545-13.963636 30.254545-30.254545 2.327273-16.290909-11.636364-30.254545-30.254545-30.254546z m-304.872727 46.545455v-16.290909 16.290909z"  horiz-adv-x="1024" />

    
    <glyph glyph-name="morendizhi-wei" unicode="&#59028;" d="M186.181818 523.636364h651.636364c76.8 0 139.636364-62.836364 139.636363-139.636364s-62.836364-139.636364-139.636363-139.636364H186.181818c-76.8 0-139.636364 62.836364-139.636363 139.636364s62.836364 139.636364 139.636363 139.636364zM256 384m-209.454545 0a209.454545 209.454545 0 1 1 418.90909 0 209.454545 209.454545 0 1 1-418.90909 0ZM256 162.909091C134.981818 162.909091 34.909091 262.981818 34.909091 384S134.981818 605.090909 256 605.090909s221.090909-100.072727 221.090909-221.090909-100.072727-221.090909-221.090909-221.090909z m0 418.909091C146.618182 581.818182 58.181818 493.381818 58.181818 384s88.436364-197.818182 197.818182-197.818182 197.818182 88.436364 197.818182 197.818182S365.381818 581.818182 256 581.818182z"  horiz-adv-x="1024" />

    
    <glyph glyph-name="shouhuoren" unicode="&#59029;" d="M500.363636 402.618182c-118.690909 0-214.109091 95.418182-214.109091 214.109091s95.418182 214.109091 214.109091 214.109091 214.109091-95.418182 214.109091-214.109091-95.418182-214.109091-214.109091-214.109091z m0 372.363636c-86.109091 0-158.254545-69.818182-158.254545-158.254545s69.818182-158.254545 158.254545-158.254546c86.109091 0 158.254545 69.818182 158.254546 158.254546s-72.145455 158.254545-158.254546 158.254545zM653.963636-86.109091H346.763636c-123.345455 0-225.745455 95.418182-225.745454 214.109091s100.072727 214.109091 225.745454 214.109091H651.636364c123.345455 0 225.745455-95.418182 225.745454-214.109091s-100.072727-214.109091-223.418182-214.109091z m-307.2 372.363636c-93.090909 0-167.563636-69.818182-167.563636-158.254545s74.472727-158.254545 167.563636-158.254545H651.636364c93.090909 0 167.563636 69.818182 167.563636 158.254545S744.727273 286.254545 651.636364 286.254545H346.763636z"  horiz-adv-x="1024" />

    
    <glyph glyph-name="shengshiqu" unicode="&#59030;" d="M186.181818 542.254545c-34.909091 0-65.163636-27.927273-65.163636-65.163636v-465.454545c0-34.909091 27.927273-65.163636 65.163636-65.163637h279.272727c34.909091 0 65.163636 27.927273 65.163637 65.163637V477.090909c0 34.909091-27.927273 65.163636-65.163637 65.163636H186.181818zM465.454545-81.454545H186.181818c-51.2 0-93.090909 41.890909-93.090909 93.090909V477.090909c0 51.2 41.890909 93.090909 93.090909 93.090909h279.272727c51.2 0 93.090909-41.890909 93.09091-93.090909v-465.454545c0-51.2-41.890909-93.090909-93.09091-93.090909zM186.181818 512c-18.618182 0-34.909091-16.290909-34.909091-34.909091v-465.454545c0-18.618182 16.290909-34.909091 34.909091-34.909091h279.272727c18.618182 0 34.909091 16.290909 34.909091 34.909091V477.090909c0 18.618182-16.290909 34.909091-34.909091 34.909091H186.181818zM465.454545 821.527273c-34.909091 0-65.163636-27.927273-65.163636-65.163637v-744.727272c0-34.909091 27.927273-65.163636 65.163636-65.163637h372.363637c34.909091 0 65.163636 27.927273 65.163636 65.163637V756.363636c0 34.909091-27.927273 65.163636-65.163636 65.163637H465.454545zM837.818182-81.454545H465.454545c-51.2 0-93.090909 41.890909-93.090909 93.090909V756.363636c0 51.2 41.890909 93.090909 93.090909 93.090909h372.363637c51.2 0 93.090909-41.890909 93.090909-93.090909v-744.727272c0-51.2-41.890909-93.090909-93.090909-93.090909zM465.454545 791.272727c-18.618182 0-34.909091-16.290909-34.90909-34.909091v-744.727272c0-18.618182 16.290909-34.909091 34.90909-34.909091h372.363637c18.618182 0 34.909091 16.290909 34.909091 34.909091V756.363636c0 18.618182-16.290909 34.909091-34.909091 34.909091H465.454545zM535.272727 558.545455h232.727273c13.963636 0 23.272727-9.309091 23.272727-23.272728v-11.636363c0-13.963636-9.309091-23.272727-23.272727-23.272728H535.272727c-13.963636 0-23.272727 9.309091-23.272727 23.272728v11.636363c0 13.963636 9.309091 23.272727 23.272727 23.272728zM535.272727 372.363636h232.727273c13.963636 0 23.272727-9.309091 23.272727-23.272727v-11.636364c0-13.963636-9.309091-23.272727-23.272727-23.272727H535.272727c-13.963636 0-23.272727 9.309091-23.272727 23.272727v11.636364c0 13.963636 9.309091 23.272727 23.272727 23.272727z"  horiz-adv-x="1024" />

    
    <glyph glyph-name="fukuanchenggong-chakan" unicode="&#59025;" d="M418.909091-37.236364c-9.309091 0-18.618182 2.327273-25.6 6.981819-23.272727 13.963636-30.254545 44.218182-16.290909 67.490909l193.163636 321.163636-193.163636 325.818182c-13.963636 23.272727-6.981818 53.527273 16.290909 67.490909 23.272727 13.963636 53.527273 6.981818 67.490909-16.290909l202.472727-339.781818c13.963636-23.272727 13.963636-51.2 0-74.472728l-202.472727-335.127272c-9.309091-16.290909-25.6-23.272727-41.890909-23.272728z m160.581818 381.672728z m0 27.927272z"  horiz-adv-x="1024" />

    
    <glyph glyph-name="shangpinxiangqing-yixuan" unicode="&#59020;" d="M325.818182-25.6c-11.636364 0-20.945455 4.654545-27.927273 13.963636-13.963636 16.290909-11.636364 39.563636 4.654546 53.527273L665.6 360.727273 300.218182 681.890909c-16.290909 13.963636-16.290909 37.236364-2.327273 53.527273 13.963636 16.290909 37.236364 16.290909 53.527273 2.327273l374.690909-332.8c11.636364-11.636364 20.945455-25.6 20.945454-44.218182 0-16.290909-4.654545-32.581818-16.290909-46.545455-2.327273-2.327273-2.327273-4.654545-4.654545-4.654545l-374.690909-325.818182c-6.981818-6.981818-16.290909-9.309091-25.6-9.309091z m349.090909 374.690909z"  horiz-adv-x="1024" />

    
    <glyph glyph-name="shangpinxianqging-gouwuche" unicode="&#59021;" d="M323.490909 2.327273c0-20.945455 11.636364-41.890909 30.254546-51.2 18.618182-11.636364 41.890909-11.636364 60.50909 0s30.254545 30.254545 30.254546 51.2c0 20.945455-11.636364 41.890909-30.254546 51.2s-41.890909 11.636364-60.50909 0-30.254545-30.254545-30.254546-51.2zM642.327273 2.327273c0-20.945455 11.636364-41.890909 30.254545-51.2 18.618182-11.636364 41.890909-11.636364 60.509091 0s30.254545 30.254545 30.254546 51.2c0 20.945455-11.636364 41.890909-30.254546 51.2s-41.890909 11.636364-60.509091 0-30.254545-30.254545-30.254545-51.2zM721.454545 125.672727H323.490909c-79.127273 0-144.290909 60.509091-151.272727 139.636364l-39.563637 512c-2.327273 18.618182 11.636364 32.581818 30.254546 34.909091 18.618182 2.327273 32.581818-11.636364 34.909091-30.254546l39.563636-512c4.654545-44.218182 41.890909-81.454545 88.436364-81.454545h395.636363c48.872727 0 88.436364 39.563636 88.436364 88.436364V563.2c0 23.272727-9.309091 46.545455-25.6 62.836364S744.727273 651.636364 721.454545 651.636364H342.109091c-16.290909 0-30.254545 13.963636-30.254546 32.581818s13.963636 30.254545 30.254546 30.254545H721.454545c41.890909 0 79.127273-16.290909 107.054546-44.218182 27.927273-27.927273 44.218182-67.490909 44.218182-107.054545v-286.254545c0-83.781818-67.490909-151.272727-151.272728-151.272728zM390.306909 513.326545c-11.636364 0-20.945455-9.309091-20.945454-20.945454s9.309091-20.945455 20.945454-20.945455h302.545455c11.636364 0 20.945455 9.309091 20.945454 20.945455s-9.309091 20.945455-20.945454 20.945454h-302.545455zM692.852364 464.453818h-302.545455c-16.290909 0-27.927273 11.636364-27.927273 27.927273s11.636364 27.927273 27.927273 27.927273h302.545455c16.290909 0 27.927273-11.636364 27.927272-27.927273s-11.636364-27.927273-27.927272-27.927273z m-302.545455 39.563637c-6.981818 0-11.636364-4.654545-11.636364-11.636364s4.654545-11.636364 11.636364-11.636364h302.545455c6.981818 0 11.636364 4.654545 11.636363 11.636364s-4.654545 11.636364-11.636363 11.636364h-302.545455zM390.306909 352.744727c-11.636364 0-20.945455-9.309091-20.945454-20.945454s9.309091-20.945455 20.945454-20.945455h302.545455c11.636364 0 20.945455 9.309091 20.945454 20.945455s-9.309091 20.945455-20.945454 20.945454h-302.545455zM692.852364 303.872h-302.545455c-16.290909 0-27.927273 13.963636-27.927273 27.927273s11.636364 27.927273 27.927273 27.927272h302.545455c16.290909 0 27.927273-11.636364 27.927272-27.927272s-11.636364-27.927273-27.927272-27.927273z m-302.545455 41.890909c-6.981818 0-11.636364-4.654545-11.636364-11.636364s4.654545-11.636364 11.636364-11.636363h302.545455c6.981818 0 11.636364 4.654545 11.636363 11.636363s-4.654545 11.636364-11.636363 11.636364h-302.545455z"  horiz-adv-x="1024" />

    
    <glyph glyph-name="shangpinxiangqing-kefu" unicode="&#59022;" d="M463.127273-93.090909c-25.6 0-46.545455 20.945455-46.545455 46.545454v4.654546c0 4.654545 0 9.309091 2.327273 13.963636C223.418182 11.636364 81.454545 186.181818 81.454545 386.327273c0 235.054545 193.163636 428.218182 432.872728 428.218182 237.381818 0 432.872727-190.836364 432.872727-428.218182 0-186.181818-125.672727-353.745455-304.872727-409.6-53.527273-23.272727-125.672727-53.527273-158.254546-67.490909l-13.963636-4.654546-6.981818 2.327273z m51.2 837.818182c-200.145455 0-363.054545-160.581818-363.054546-358.4 0-176.872727 134.981818-330.472727 311.854546-353.745455l34.909091-4.654545-4.654546-34.909091c34.909091 16.290909 83.781818 34.909091 121.018182 51.2l4.654545 2.327273c151.272727 44.218182 256 186.181818 256 342.10909 0 195.490909-162.909091 356.072727-360.727272 356.072728zM658.618182 276.945455c6.981818 0 13.963636-6.981818 13.963636-13.963637 0-4.654545-2.327273-6.981818-4.654545-9.309091-23.272727-34.909091-86.109091-65.163636-155.927273-65.163636s-130.327273 27.927273-153.6 62.836364c-2.327273 2.327273-4.654545 6.981818-4.654545 11.636363 0 6.981818 6.981818 13.963636 13.963636 13.963637 4.654545 0 9.309091-2.327273 11.636364-4.654546l2.327272-2.327273c18.618182-30.254545 72.145455-58.181818 132.654546-58.181818 62.836364 0 114.036364 25.6 132.654545 55.854546 0 4.654545 6.981818 9.309091 11.636364 9.309091zM337.454545 514.327273c23.272727 0 44.218182-18.618182 44.218182-44.218182s-18.618182-44.218182-44.218182-44.218182-44.218182 18.618182-44.218181 44.218182 18.618182 44.218182 44.218181 44.218182z m351.418182 0c23.272727 0 44.218182-18.618182 44.218182-44.218182s-18.618182-44.218182-44.218182-44.218182-44.218182 18.618182-44.218182 44.218182 20.945455 44.218182 44.218182 44.218182zM512 169.890909c-72.145455 0-137.309091 27.927273-167.563636 69.818182-4.654545 6.981818-9.309091 13.963636-9.309091 23.272727 0 18.618182 13.963636 32.581818 32.581818 32.581818 9.309091 0 18.618182-4.654545 25.6-11.636363l2.327273-2.327273c16.290909-25.6 60.509091-48.872727 118.690909-48.872727 55.854545 0 100.072727 23.272727 116.363636 46.545454 4.654545 11.636364 16.290909 18.618182 27.927273 18.618182 18.618182 0 32.581818-13.963636 32.581818-32.581818 0-6.981818-2.327273-16.290909-6.981818-20.945455-30.254545-46.545455-100.072727-74.472727-172.218182-74.472727z m176.872727 239.709091c-34.909091 0-62.836364 27.927273-62.836363 62.836364s27.927273 62.836364 62.836363 62.836363 62.836364-27.927273 62.836364-62.836363-27.927273-62.836364-62.836364-62.836364z m0 88.436364c-13.963636 0-25.6-11.636364-25.6-25.6s11.636364-25.6 25.6-25.6 25.6 11.636364 25.6 25.6-9.309091 25.6-25.6 25.6z m-351.418182-88.436364c-34.909091 0-62.836364 27.927273-62.836363 62.836364s27.927273 62.836364 62.836363 62.836363c34.909091 0 62.836364-27.927273 62.836364-62.836363s-30.254545-62.836364-62.836364-62.836364z m0 88.436364c-13.963636 0-25.6-11.636364-25.6-25.6s11.636364-25.6 25.6-25.6 25.6 11.636364 25.6 25.6-11.636364 25.6-25.6 25.6z"  horiz-adv-x="1024" />

    
    <glyph glyph-name="weizhi" unicode="&#59023;" d="M784.290909 642.327273c-6.981818-230.4-102.4-411.927273-283.927273-546.909091-23.272727-18.618182-83.781818 2.327273-176.872727 58.181818l141.963636-181.527273c107.054545 72.145455 183.854545 144.290909 230.4 216.436364s93.090909 200.145455 139.636364 379.345454l-51.2 74.472728zM493.381818-60.509091c-32.581818 0-67.490909 23.272727-111.709091 69.818182l23.272728 20.945454-23.272728-20.945454c-34.909091 37.236364-72.145455 88.436364-109.381818 146.618182C221.090909 235.054545 139.636364 386.327273 139.636364 502.690909c0 93.090909 37.236364 179.2 102.4 244.363636C309.527273 812.218182 397.963636 849.454545 493.381818 849.454545c93.090909 0 181.527273-34.909091 249.018182-102.4 67.490909-65.163636 102.4-153.6 102.4-244.363636 0-118.690909-81.454545-267.636364-130.327273-346.763636-34.909091-58.181818-74.472727-109.381818-109.381818-146.618182-44.218182-46.545455-79.127273-69.818182-111.709091-69.818182z m0 847.127273c-76.8 0-151.272727-30.254545-204.8-83.781818-55.854545-53.527273-86.109091-125.672727-86.109091-200.145455 0-74.472727 44.218182-188.509091 121.018182-314.181818 32.581818-53.527273 69.818182-102.4 102.4-137.309091 44.218182-46.545455 62.836364-48.872727 67.490909-48.872727s23.272727 2.327273 67.490909 48.872727c32.581818 34.909091 67.490909 83.781818 102.4 137.309091 76.8 125.672727 121.018182 239.709091 121.018182 314.181818 0 76.8-30.254545 146.618182-83.781818 200.145455-58.181818 53.527273-130.327273 83.781818-207.127273 83.781818zM493.381818 337.454545c83.781818 0 151.272727 67.490909 151.272727 148.945455s-67.490909 148.945455-151.272727 148.945455-151.272727-67.490909-151.272727-148.945455 67.490909-148.945455 151.272727-148.945455zM493.381818 307.2c-100.072727 0-181.527273 81.454545-181.527273 179.2s81.454545 179.2 181.527273 179.2 181.527273-81.454545 181.527273-179.2-81.454545-179.2-181.527273-179.2z m0 295.563636c-65.163636 0-121.018182-53.527273-121.018182-116.363636s53.527273-116.363636 121.018182-116.363636 121.018182 53.527273 121.018182 116.363636-55.854545 116.363636-121.018182 116.363636z"  horiz-adv-x="1024" />

    
    <glyph glyph-name="shangpinxianqging-jiarugouwuche" unicode="&#59024;" d="M296.727273 53.527273c0-18.618182 9.309091-34.909091 25.6-44.218182s37.236364-9.309091 51.2 0 25.6 25.6 25.6 44.218182-9.309091 34.909091-25.6 44.218182-37.236364 9.309091-51.2 0-25.6-25.6-25.6-44.218182zM576 53.527273c0-18.618182 9.309091-34.909091 25.6-44.218182s37.236364-9.309091 51.2 0 25.6 25.6 25.6 44.218182-9.309091 34.909091-25.6 44.218182-37.236364 9.309091-51.2 0-25.6-25.6-25.6-44.218182zM157.090909 733.090909l34.909091-446.836364c4.654545-53.527273 48.872727-95.418182 104.727273-95.418181h349.090909c58.181818 0 104.727273 46.545455 104.727273 104.727272V546.909091c0 58.181818-46.545455 104.727273-104.727273 104.727273h-330.472727M645.818182 160.581818h-349.090909c-69.818182 0-125.672727 53.527273-132.654546 121.018182L129.163636 730.763636c-2.327273 16.290909 9.309091 27.927273 25.6 30.254546 16.290909 0 27.927273-9.309091 30.254546-25.6l34.909091-446.836364c2.327273-39.563636 37.236364-69.818182 76.8-69.818182h349.090909c41.890909 0 76.8 34.909091 76.8 76.8V546.909091c0 41.890909-34.909091 76.8-76.8 76.8h-330.472727c-16.290909 0-27.927273 11.636364-27.927273 27.927273s11.636364 27.927273 27.927273 27.927272h330.472727c34.909091 0 69.818182-13.963636 93.090909-39.563636 25.6-25.6 39.563636-58.181818 39.563636-93.090909v-251.345455c0-74.472727-60.509091-134.981818-132.654545-134.981818zM357.236364 498.036364c-9.309091 0-18.618182-6.981818-18.618182-18.618182 0-9.309091 6.981818-18.618182 18.618182-18.618182h90.763636c9.309091 0 18.618182 6.981818 18.618182 18.618182 0 9.309091-6.981818 18.618182-18.618182 18.618182h-90.763636zM448 458.472727h-93.090909c-13.963636 0-23.272727 11.636364-23.272727 23.272728s11.636364 23.272727 23.272727 23.272727h90.763636c13.963636 0 23.272727-11.636364 23.272728-23.272727s-9.309091-23.272727-20.945455-23.272728z m-93.090909 34.909091c-4.654545 0-11.636364-4.654545-11.636364-11.636363s4.654545-11.636364 11.636364-11.636364h90.763636c4.654545 0 11.636364 4.654545 11.636364 11.636364s-4.654545 11.636364-11.636364 11.636363h-90.763636zM357.236364 360.727273c-9.309091 0-18.618182-6.981818-18.618182-18.618182 0-9.309091 6.981818-18.618182 18.618182-18.618182h90.763636c9.309091 0 18.618182 6.981818 18.618182 18.618182 0 9.309091-6.981818 18.618182-18.618182 18.618182h-90.763636zM448 318.836364h-93.090909c-13.963636 0-23.272727 11.636364-23.272727 23.272727s11.636364 23.272727 23.272727 23.272727h90.763636c13.963636 0 23.272727-11.636364 23.272728-23.272727s-9.309091-23.272727-20.945455-23.272727z m-93.090909 34.909091c-4.654545 0-11.636364-4.654545-11.636364-11.636364s4.654545-11.636364 11.636364-11.636364h90.763636c4.654545 0 11.636364 4.654545 11.636364 11.636364s-4.654545 11.636364-11.636364 11.636364h-90.763636zM749.381818 574.836364m-228.072727 0a228.072727 228.072727 0 1 1 456.145454 0 228.072727 228.072727 0 1 1-456.145454 0ZM749.381818 321.163636c-139.636364 0-256 114.036364-256 256s114.036364 256 256 256 256-114.036364 256-256-114.036364-256-256-256z m0 453.818182c-109.381818 0-197.818182-88.436364-197.818182-197.818182s88.436364-197.818182 197.818182-197.818181 197.818182 88.436364 197.818182 197.818181-86.109091 197.818182-197.818182 197.818182zM644.654545 598.109091h214.109091c16.290909 0 27.927273-11.636364 27.927273-27.927273s-13.963636-27.927273-30.254545-27.927273h-211.781819c-16.290909 0-27.927273 13.963636-27.927272 27.927273s11.636364 27.927273 27.927272 27.927273zM777.309091 677.236364v-214.109091c0-16.290909-11.636364-27.927273-27.927273-27.927273s-27.927273 11.636364-27.927273 27.927273V677.236364c0 16.290909 11.636364 27.927273 27.927273 27.927272s27.927273-11.636364 27.927273-27.927272z"  horiz-adv-x="1024" />

    
    <glyph glyph-name="xiaoxi-qingkong" unicode="&#59019;" d="M512 384m-465.454545 0a465.454545 465.454545 0 1 1 930.90909 0 465.454545 465.454545 0 1 1-930.90909 0ZM397.335273 259.188364c9.309091 0 18.618182-9.309091 18.618182-18.618182v-76.8c0-9.309091-9.309091-18.618182-18.618182-18.618182s-18.618182 9.309091-18.618182 18.618182v76.8c0 9.309091 9.309091 18.618182 18.618182 18.618182zM511.371636 259.188364c9.309091 0 18.618182-9.309091 18.618182-18.618182v-39.563637c0-9.309091-9.309091-18.618182-18.618182-18.618181s-18.618182 9.309091-18.618181 18.618181v39.563637c0 9.309091 9.309091 18.618182 18.618181 18.618182zM518.353455 603.624727c9.309091 0 18.618182-9.309091 18.618181-18.618182v-39.563636c0-9.309091-9.309091-18.618182-18.618181-18.618182s-18.618182 9.309091-18.618182 18.618182v39.563636c0 9.309091 9.309091 18.618182 18.618182 18.618182zM625.408 259.188364c9.309091 0 18.618182-9.309091 18.618182-18.618182v-76.8c0-9.309091-9.309091-18.618182-18.618182-18.618182s-18.618182 9.309091-18.618182 18.618182v76.8c0 9.309091 9.309091 18.618182 18.618182 18.618182zM759.738182 372.992h-495.709091v58.181818c0 53.527273 41.890909 95.418182 95.418182 95.418182h65.163636v62.836364c0 51.2 41.890909 90.763636 93.090909 90.763636s90.763636-41.890909 93.090909-90.763636v-62.836364h53.527273c53.527273 0 95.418182-41.890909 95.418182-95.418182v-58.181818z m-456.145455 39.563636h416.581818v18.618182c0 30.254545-25.6 55.854545-55.854545 55.854546h-90.763636v100.072727c0 30.254545-23.272727 53.527273-53.527273 53.527273-30.254545 0-53.527273-23.272727-53.527273-53.527273l-2.327273-100.072727h-104.727272c-30.254545 0-55.854545-25.6-55.854546-55.854546v-18.618182zM701.556364 123.973818h-379.345455c-32.581818 0-58.181818 25.6-58.181818 58.181818v153.6c0 11.636364 9.309091 18.618182 18.618182 18.618182s18.618182-9.309091 18.618182-18.618182v-153.6c0-9.309091 9.309091-18.618182 18.618181-18.618181h381.672728c9.309091 0 18.618182 9.309091 18.618181 18.618181v153.6c0 11.636364 9.309091 18.618182 18.618182 18.618182s18.618182-9.309091 18.618182-18.618182v-153.6c2.327273-32.581818-23.272727-58.181818-55.854545-58.181818z"  horiz-adv-x="1024" />

    
    <glyph glyph-name="sousuoye-shouqi" unicode="&#59017;" d="M849.454545 132.654545c-13.963636 0-27.927273 6.981818-39.563636 18.618182L502.690909 502.690909 190.836364 151.272727c-18.618182-20.945455-51.2-23.272727-74.472728-4.654545-20.945455 18.618182-23.272727 51.2-4.654545 74.472727l323.490909 365.381818c32.581818 37.236364 88.436364 39.563636 125.672727 6.981818l6.981818-6.981818L889.018182 221.090909c18.618182-20.945455 16.290909-55.854545-4.654546-74.472727-9.309091-9.309091-23.272727-13.963636-34.909091-13.963637z"  horiz-adv-x="1024" />

    
    <glyph glyph-name="sousuoye-zhankai" unicode="&#59018;" d="M502.690909 153.6h-4.654545c-23.272727 2.327273-46.545455 11.636364-60.509091 30.254545L111.709091 546.909091c-18.618182 20.945455-16.290909 55.854545 4.654545 74.472727 20.945455 18.618182 55.854545 16.290909 74.472728-4.654545l311.854545-351.418182L809.890909 616.727273c18.618182 20.945455 51.2 23.272727 74.472727 4.654545 20.945455-18.618182 23.272727-51.2 4.654546-74.472727L570.181818 183.854545l-6.981818-6.981818c-18.618182-16.290909-39.563636-23.272727-60.509091-23.272727z"  horiz-adv-x="1024" />

    
    <glyph glyph-name="shouye-gengduo" unicode="&#59016;" d="M395.636364-25.6c-11.636364 0-25.6 4.654545-37.236364 11.636364-27.927273 20.945455-32.581818 58.181818-13.963636 86.109091L574.836364 384 346.763636 698.181818c-20.945455 27.927273-13.963636 65.163636 13.963637 86.109091 27.927273 20.945455 65.163636 13.963636 86.109091-13.963636L691.2 430.545455c20.945455-30.254545 20.945455-69.818182 0-100.072728L444.509091-2.327273c-11.636364-16.290909-30.254545-23.272727-48.872727-23.272727z m197.818181 384z"  horiz-adv-x="1024" />

    
    <glyph glyph-name="shouye-fenlei" unicode="&#59008;" d="M384-81.454545H130.327273c-46.545455 0-83.781818 37.236364-83.781818 83.781818V256c0 46.545455 37.236364 83.781818 83.781818 83.781818h253.672727c46.545455 0 83.781818-37.236364 83.781818-83.781818v-253.672727c2.327273-46.545455-34.909091-83.781818-83.781818-83.781818zM130.327273 272.290909c-9.309091 0-13.963636-6.981818-13.963637-13.963636v-253.672728c0-9.309091 6.981818-16.290909 13.963637-16.290909h253.672727c9.309091 0 13.963636 6.981818 13.963636 13.963637V256c0 9.309091-6.981818 13.963636-13.963636 13.963636H130.327273zM765.672727-81.454545c-116.363636 0-211.781818 95.418182-211.781818 211.781818s95.418182 211.781818 211.781818 211.781818 211.781818-95.418182 211.781818-211.781818-95.418182-211.781818-211.781818-211.781818z m0 353.745454c-79.127273 0-141.963636-62.836364-141.963636-141.963636s62.836364-141.963636 141.963636-141.963637 141.963636 62.836364 141.963637 141.963637-62.836364 141.963636-141.963637 141.963636zM384 425.890909H130.327273c-46.545455 0-83.781818 37.236364-83.781818 83.781818v256C46.545455 812.218182 83.781818 849.454545 130.327273 849.454545h253.672727c46.545455 0 83.781818-37.236364 83.781818-83.781818v-253.672727c2.327273-48.872727-34.909091-86.109091-83.781818-86.109091zM130.327273 779.636364c-6.981818 0-13.963636-6.981818-13.963637-13.963637v-253.672727c0-9.309091 6.981818-13.963636 13.963637-13.963636h253.672727c9.309091 0 13.963636 6.981818 13.963636 13.963636V765.672727c0 9.309091-6.981818 13.963636-13.963636 13.963637H130.327273zM893.672727 425.890909H640c-46.545455 0-83.781818 37.236364-83.781818 83.781818v256c0 46.545455 37.236364 83.781818 83.781818 83.781818h253.672727c46.545455 0 83.781818-37.236364 83.781818-83.781818v-253.672727c0-48.872727-37.236364-86.109091-83.781818-86.109091zM640 779.636364c-9.309091 0-13.963636-6.981818-13.963636-13.963637v-253.672727c0-9.309091 6.981818-13.963636 13.963636-13.963636h253.672727c9.309091 0 13.963636 6.981818 13.963637 13.963636V765.672727c0 6.981818-6.981818 13.963636-13.963637 13.963637H640z"  horiz-adv-x="1024" />

    
    <glyph glyph-name="shouyidaozhang" unicode="&#59005;" d="M512 849.454545c256 0 465.454545-209.454545 465.454545-465.454545s-209.454545-465.454545-465.454545-465.454545S46.545455 128 46.545455 384 256 849.454545 512 849.454545zM512 381.905455m-232.727273 0a232.727273 232.727273 0 1 1 465.454546 0 232.727273 232.727273 0 1 1-465.454546 0ZM567.854545 498.269091c-4.654545 0-9.309091-2.327273-11.636363-4.654546l-46.545455-48.872727L465.454545 493.614545c-2.327273 2.327273-6.981818 4.654545-11.636363 4.654546s-9.309091-2.327273-11.636364-4.654546c-6.981818-6.981818-6.981818-18.618182 0-25.6l27.927273-30.254545H442.181818c-6.981818 0-11.636364-6.981818-11.636363-18.618182s4.654545-16.290909 11.636363-18.618182h51.2v-25.6H442.181818c-6.981818-2.327273-11.636364-6.981818-11.636363-16.290909 0-9.309091 4.654545-16.290909 11.636363-18.618182h51.2v-55.854545c0-9.309091 6.981818-18.618182 16.290909-18.618182 9.309091 0 16.290909 9.309091 16.290909 18.618182v55.854545h51.2c9.309091 2.327273 13.963636 9.309091 13.963637 18.618182s-4.654545 16.290909-13.963637 16.290909h-51.2V400.523636h51.2c9.309091 2.327273 13.963636 9.309091 13.963637 18.618182s-4.654545 16.290909-13.963637 18.618182h-27.927272l27.927272 30.254545c6.981818 6.981818 6.981818 18.618182 0 25.6 0 2.327273-4.654545 4.654545-9.309091 4.654546z"  horiz-adv-x="1024" />

    
    <glyph glyph-name="tixian" unicode="&#59007;" d="M512 849.454545c256 0 465.454545-209.454545 465.454545-465.454545s-209.454545-465.454545-465.454545-465.454545S46.545455 128 46.545455 384 256 849.454545 512 849.454545zM756.363636 472.436364c0 11.636364-9.309091 18.618182-18.618181 18.618181H309.527273c-9.309091 0-18.618182-9.309091-18.618182-18.618181v-288.581819c0-11.636364 9.309091-20.945455 18.618182-20.945454h425.890909c11.636364 0 18.618182 9.309091 18.618182 18.618182v74.472727h-121.018182c-39.563636 0-69.818182 32.581818-69.818182 69.818182s32.581818 69.818182 69.818182 69.818182h123.345454v76.8z m-165.236363-144.290909c0-23.272727 18.618182-41.890909 41.890909-41.89091s41.890909 18.618182 41.890909 41.89091-18.618182 41.890909-41.890909 41.890909-41.890909-18.618182-41.890909-41.890909z m118.690909 181.527272l-23.272727 83.781818c-2.327273 9.309091-11.636364 13.963636-18.618182 11.636364l-337.454546-95.418182h379.345455z"  horiz-adv-x="1024" />

    
    </font>
</defs>
</svg>
